<svg xmlns="http://www.w3.org/2000/svg" xmlns:xlink="http://www.w3.org/1999/xlink" width="757.287" height="477.062" version="1.1" viewBox="0 0 567.965 357.796"><metadata><rdf:RDF xmlns:cc="http://creativecommons.org/ns#" xmlns:dc="http://purl.org/dc/elements/1.1/" xmlns:rdf="http://www.w3.org/1999/02/22-rdf-syntax-ns#"><cc:Work><dc:type rdf:resource="http://purl.org/dc/dcmitype/StillImage"/><dc:date>2024-04-23T17:55:04.586301</dc:date><dc:format>image/svg+xml</dc:format><dc:creator><cc:Agent><dc:title>Matplotlib v3.8.3, https://matplotlib.org/</dc:title></cc:Agent></dc:creator></cc:Work></rdf:RDF></metadata><defs><style type="text/css">*{stroke-linejoin:round;stroke-linecap:butt}</style></defs><g id="figure_1"><g id="patch_1"><path d="M 0 357.79625 L 567.96544 357.79625 L 567.96544 -0 L 0 -0 z" style="fill:#fff"/></g><g id="axes_1"><g id="patch_2"><path d="M 45.478125 320.24 L 560.76544 320.24 L 560.76544 31 L 45.478125 31 z" style="fill:#fff"/></g><g id="matplotlib.axis_1"><g id="xtick_1"><g id="line2d_1"><defs><path id="m3dd68648f3" d="M 0 0 L 0 3.5" style="stroke:#000;stroke-width:.8"/></defs><g><use x="53.789" y="320.24" xlink:href="#m3dd68648f3" style="stroke:#000;stroke-width:.8"/></g></g><g id="text_1"><g transform="translate(50.607961 334.838437) scale(0.1 -0.1)"><defs><path id="DejaVuSans-30" d="M 2034 4250 Q 1547 4250 1301 3770 Q 1056 3291 1056 2328 Q 1056 1369 1301 889 Q 1547 409 2034 409 Q 2525 409 2770 889 Q 3016 1369 3016 2328 Q 3016 3291 2770 3770 Q 2525 4250 2034 4250 z M 2034 4750 Q 2819 4750 3233 4129 Q 3647 3509 3647 2328 Q 3647 1150 3233 529 Q 2819 -91 2034 -91 Q 1250 -91 836 529 Q 422 1150 422 2328 Q 422 3509 836 4129 Q 1250 4750 2034 4750 z" transform="scale(0.015625)"/></defs><use xlink:href="#DejaVuSans-30"/></g></g></g><g id="xtick_2"><g id="line2d_2"><g><use x="114.233" y="320.24" xlink:href="#m3dd68648f3" style="stroke:#000;stroke-width:.8"/></g></g><g id="text_2"><g transform="translate(111.052221 334.838437) scale(0.1 -0.1)"><defs><path id="DejaVuSans-34" d="M 2419 4116 L 825 1625 L 2419 1625 L 2419 4116 z M 2253 4666 L 3047 4666 L 3047 1625 L 3713 1625 L 3713 1100 L 3047 1100 L 3047 0 L 2419 0 L 2419 1100 L 313 1100 L 313 1709 L 2253 4666 z" transform="scale(0.015625)"/></defs><use xlink:href="#DejaVuSans-34"/></g></g></g><g id="xtick_3"><g id="line2d_3"><g><use x="174.678" y="320.24" xlink:href="#m3dd68648f3" style="stroke:#000;stroke-width:.8"/></g></g><g id="text_3"><g transform="translate(171.49648 334.838437) scale(0.1 -0.1)"><defs><path id="DejaVuSans-38" d="M 2034 2216 Q 1584 2216 1326 1975 Q 1069 1734 1069 1313 Q 1069 891 1326 650 Q 1584 409 2034 409 Q 2484 409 2743 651 Q 3003 894 3003 1313 Q 3003 1734 2745 1975 Q 2488 2216 2034 2216 z M 1403 2484 Q 997 2584 770 2862 Q 544 3141 544 3541 Q 544 4100 942 4425 Q 1341 4750 2034 4750 Q 2731 4750 3128 4425 Q 3525 4100 3525 3541 Q 3525 3141 3298 2862 Q 3072 2584 2669 2484 Q 3125 2378 3379 2068 Q 3634 1759 3634 1313 Q 3634 634 3220 271 Q 2806 -91 2034 -91 Q 1263 -91 848 271 Q 434 634 434 1313 Q 434 1759 690 2068 Q 947 2378 1403 2484 z M 1172 3481 Q 1172 3119 1398 2916 Q 1625 2713 2034 2713 Q 2441 2713 2670 2916 Q 2900 3119 2900 3481 Q 2900 3844 2670 4047 Q 2441 4250 2034 4250 Q 1625 4250 1398 4047 Q 1172 3844 1172 3481 z" transform="scale(0.015625)"/></defs><use xlink:href="#DejaVuSans-38"/></g></g></g><g id="xtick_4"><g id="line2d_4"><g><use x="235.122" y="320.24" xlink:href="#m3dd68648f3" style="stroke:#000;stroke-width:.8"/></g></g><g id="text_4"><g transform="translate(228.75949 334.838437) scale(0.1 -0.1)"><defs><path id="DejaVuSans-31" d="M 794 531 L 1825 531 L 1825 4091 L 703 3866 L 703 4441 L 1819 4666 L 2450 4666 L 2450 531 L 3481 531 L 3481 0 L 794 0 L 794 531 z" transform="scale(0.015625)"/><path id="DejaVuSans-32" d="M 1228 531 L 3431 531 L 3431 0 L 469 0 L 469 531 Q 828 903 1448 1529 Q 2069 2156 2228 2338 Q 2531 2678 2651 2914 Q 2772 3150 2772 3378 Q 2772 3750 2511 3984 Q 2250 4219 1831 4219 Q 1534 4219 1204 4116 Q 875 4013 500 3803 L 500 4441 Q 881 4594 1212 4672 Q 1544 4750 1819 4750 Q 2544 4750 2975 4387 Q 3406 4025 3406 3419 Q 3406 3131 3298 2873 Q 3191 2616 2906 2266 Q 2828 2175 2409 1742 Q 1991 1309 1228 531 z" transform="scale(0.015625)"/></defs><use xlink:href="#DejaVuSans-31"/><use x="63.623" xlink:href="#DejaVuSans-32"/></g></g></g><g id="xtick_5"><g id="line2d_5"><g><use x="295.566" y="320.24" xlink:href="#m3dd68648f3" style="stroke:#000;stroke-width:.8"/></g></g><g id="text_5"><g transform="translate(289.20375 334.838437) scale(0.1 -0.1)"><defs><path id="DejaVuSans-36" d="M 2113 2584 Q 1688 2584 1439 2293 Q 1191 2003 1191 1497 Q 1191 994 1439 701 Q 1688 409 2113 409 Q 2538 409 2786 701 Q 3034 994 3034 1497 Q 3034 2003 2786 2293 Q 2538 2584 2113 2584 z M 3366 4563 L 3366 3988 Q 3128 4100 2886 4159 Q 2644 4219 2406 4219 Q 1781 4219 1451 3797 Q 1122 3375 1075 2522 Q 1259 2794 1537 2939 Q 1816 3084 2150 3084 Q 2853 3084 3261 2657 Q 3669 2231 3669 1497 Q 3669 778 3244 343 Q 2819 -91 2113 -91 Q 1303 -91 875 529 Q 447 1150 447 2328 Q 447 3434 972 4092 Q 1497 4750 2381 4750 Q 2619 4750 2861 4703 Q 3103 4656 3366 4563 z" transform="scale(0.015625)"/></defs><use xlink:href="#DejaVuSans-31"/><use x="63.623" xlink:href="#DejaVuSans-36"/></g></g></g><g id="xtick_6"><g id="line2d_6"><g><use x="356.011" y="320.24" xlink:href="#m3dd68648f3" style="stroke:#000;stroke-width:.8"/></g></g><g id="text_6"><g transform="translate(349.64801 334.838437) scale(0.1 -0.1)"><use xlink:href="#DejaVuSans-32"/><use x="63.623" xlink:href="#DejaVuSans-30"/></g></g></g><g id="xtick_7"><g id="line2d_7"><g><use x="416.455" y="320.24" xlink:href="#m3dd68648f3" style="stroke:#000;stroke-width:.8"/></g></g><g id="text_7"><g transform="translate(410.09227 334.838437) scale(0.1 -0.1)"><use xlink:href="#DejaVuSans-32"/><use x="63.623" xlink:href="#DejaVuSans-34"/></g></g></g><g id="xtick_8"><g id="line2d_8"><g><use x="476.899" y="320.24" xlink:href="#m3dd68648f3" style="stroke:#000;stroke-width:.8"/></g></g><g id="text_8"><g transform="translate(470.53653 334.838437) scale(0.1 -0.1)"><use xlink:href="#DejaVuSans-32"/><use x="63.623" xlink:href="#DejaVuSans-38"/></g></g></g><g id="xtick_9"><g id="line2d_9"><g><use x="537.343" y="320.24" xlink:href="#m3dd68648f3" style="stroke:#000;stroke-width:.8"/></g></g><g id="text_9"><g transform="translate(530.98079 334.838437) scale(0.1 -0.1)"><defs><path id="DejaVuSans-33" d="M 2597 2516 Q 3050 2419 3304 2112 Q 3559 1806 3559 1356 Q 3559 666 3084 287 Q 2609 -91 1734 -91 Q 1441 -91 1130 -33 Q 819 25 488 141 L 488 750 Q 750 597 1062 519 Q 1375 441 1716 441 Q 2309 441 2620 675 Q 2931 909 2931 1356 Q 2931 1769 2642 2001 Q 2353 2234 1838 2234 L 1294 2234 L 1294 2753 L 1863 2753 Q 2328 2753 2575 2939 Q 2822 3125 2822 3475 Q 2822 3834 2567 4026 Q 2313 4219 1838 4219 Q 1578 4219 1281 4162 Q 984 4106 628 3988 L 628 4550 Q 988 4650 1302 4700 Q 1616 4750 1894 4750 Q 2613 4750 3031 4423 Q 3450 4097 3450 3541 Q 3450 3153 3228 2886 Q 3006 2619 2597 2516 z" transform="scale(0.015625)"/></defs><use xlink:href="#DejaVuSans-33"/><use x="63.623" xlink:href="#DejaVuSans-32"/></g></g></g><g id="text_10"><g transform="translate(288.946783 348.516562) scale(0.1 -0.1)"><defs><path id="DejaVuSans-43" d="M 4122 4306 L 4122 3641 Q 3803 3938 3442 4084 Q 3081 4231 2675 4231 Q 1875 4231 1450 3742 Q 1025 3253 1025 2328 Q 1025 1406 1450 917 Q 1875 428 2675 428 Q 3081 428 3442 575 Q 3803 722 4122 1019 L 4122 359 Q 3791 134 3420 21 Q 3050 -91 2638 -91 Q 1578 -91 968 557 Q 359 1206 359 2328 Q 359 3453 968 4101 Q 1578 4750 2638 4750 Q 3056 4750 3426 4639 Q 3797 4528 4122 4306 z" transform="scale(0.015625)"/><path id="DejaVuSans-6f" d="M 1959 3097 Q 1497 3097 1228 2736 Q 959 2375 959 1747 Q 959 1119 1226 758 Q 1494 397 1959 397 Q 2419 397 2687 759 Q 2956 1122 2956 1747 Q 2956 2369 2687 2733 Q 2419 3097 1959 3097 z M 1959 3584 Q 2709 3584 3137 3096 Q 3566 2609 3566 1747 Q 3566 888 3137 398 Q 2709 -91 1959 -91 Q 1206 -91 779 398 Q 353 888 353 1747 Q 353 2609 779 3096 Q 1206 3584 1959 3584 z" transform="scale(0.015625)"/><path id="DejaVuSans-72" d="M 2631 2963 Q 2534 3019 2420 3045 Q 2306 3072 2169 3072 Q 1681 3072 1420 2755 Q 1159 2438 1159 1844 L 1159 0 L 581 0 L 581 3500 L 1159 3500 L 1159 2956 Q 1341 3275 1631 3429 Q 1922 3584 2338 3584 Q 2397 3584 2469 3576 Q 2541 3569 2628 3553 L 2631 2963 z" transform="scale(0.015625)"/><path id="DejaVuSans-65" d="M 3597 1894 L 3597 1613 L 953 1613 Q 991 1019 1311 708 Q 1631 397 2203 397 Q 2534 397 2845 478 Q 3156 559 3463 722 L 3463 178 Q 3153 47 2828 -22 Q 2503 -91 2169 -91 Q 1331 -91 842 396 Q 353 884 353 1716 Q 353 2575 817 3079 Q 1281 3584 2069 3584 Q 2775 3584 3186 3129 Q 3597 2675 3597 1894 z M 3022 2063 Q 3016 2534 2758 2815 Q 2500 3097 2075 3097 Q 1594 3097 1305 2825 Q 1016 2553 972 2059 L 3022 2063 z" transform="scale(0.015625)"/><path id="DejaVuSans-73" d="M 2834 3397 L 2834 2853 Q 2591 2978 2328 3040 Q 2066 3103 1784 3103 Q 1356 3103 1142 2972 Q 928 2841 928 2578 Q 928 2378 1081 2264 Q 1234 2150 1697 2047 L 1894 2003 Q 2506 1872 2764 1633 Q 3022 1394 3022 966 Q 3022 478 2636 193 Q 2250 -91 1575 -91 Q 1294 -91 989 -36 Q 684 19 347 128 L 347 722 Q 666 556 975 473 Q 1284 391 1588 391 Q 1994 391 2212 530 Q 2431 669 2431 922 Q 2431 1156 2273 1281 Q 2116 1406 1581 1522 L 1381 1569 Q 847 1681 609 1914 Q 372 2147 372 2553 Q 372 3047 722 3315 Q 1072 3584 1716 3584 Q 2034 3584 2315 3537 Q 2597 3491 2834 3397 z" transform="scale(0.015625)"/></defs><use xlink:href="#DejaVuSans-43"/><use x="69.824" xlink:href="#DejaVuSans-6f"/><use x="131.006" xlink:href="#DejaVuSans-72"/><use x="169.869" xlink:href="#DejaVuSans-65"/><use x="231.393" xlink:href="#DejaVuSans-73"/></g></g></g><g id="matplotlib.axis_2"><g id="ytick_1"><g id="line2d_10"><defs><path id="ma19c3bf0bf" d="M 0 0 L -3.5 0" style="stroke:#000;stroke-width:.8"/></defs><g><use x="45.478" y="285.059" xlink:href="#ma19c3bf0bf" style="stroke:#000;stroke-width:.8"/></g></g><g id="text_11"><g transform="translate(20.878125 288.85789) scale(0.1 -0.1)"><use transform="translate(0 0.684375)" xlink:href="#DejaVuSans-31"/><use transform="translate(63.623047 0.684375)" xlink:href="#DejaVuSans-30"/><use transform="translate(128.203125 38.965625) scale(0.7)" xlink:href="#DejaVuSans-31"/></g></g></g><g id="ytick_2"><g id="line2d_11"><g><use x="45.478" y="126.476" xlink:href="#ma19c3bf0bf" style="stroke:#000;stroke-width:.8"/></g></g><g id="text_12"><g transform="translate(20.878125 130.275395) scale(0.1 -0.1)"><use transform="translate(0 0.765625)" xlink:href="#DejaVuSans-31"/><use transform="translate(63.623047 0.765625)" xlink:href="#DejaVuSans-30"/><use transform="translate(128.203125 39.046875) scale(0.7)" xlink:href="#DejaVuSans-32"/></g></g></g><g id="ytick_3"><g id="line2d_12"><defs><path id="m8a725fdee9" d="M 0 0 L -2 0" style="stroke:#000;stroke-width:.6"/></defs><g><use x="45.478" y="320.24" xlink:href="#m8a725fdee9" style="stroke:#000;stroke-width:.6"/></g></g></g><g id="ytick_4"><g id="line2d_13"><g><use x="45.478" y="309.623" xlink:href="#m8a725fdee9" style="stroke:#000;stroke-width:.6"/></g></g></g><g id="ytick_5"><g id="line2d_14"><g><use x="45.478" y="300.427" xlink:href="#m8a725fdee9" style="stroke:#000;stroke-width:.6"/></g></g></g><g id="ytick_6"><g id="line2d_15"><g><use x="45.478" y="292.315" xlink:href="#m8a725fdee9" style="stroke:#000;stroke-width:.6"/></g></g></g><g id="ytick_7"><g id="line2d_16"><g><use x="45.478" y="237.321" xlink:href="#m8a725fdee9" style="stroke:#000;stroke-width:.6"/></g></g></g><g id="ytick_8"><g id="line2d_17"><g><use x="45.478" y="209.396" xlink:href="#m8a725fdee9" style="stroke:#000;stroke-width:.6"/></g></g></g><g id="ytick_9"><g id="line2d_18"><g><use x="45.478" y="189.582" xlink:href="#m8a725fdee9" style="stroke:#000;stroke-width:.6"/></g></g></g><g id="ytick_10"><g id="line2d_19"><g><use x="45.478" y="174.214" xlink:href="#m8a725fdee9" style="stroke:#000;stroke-width:.6"/></g></g></g><g id="ytick_11"><g id="line2d_20"><g><use x="45.478" y="161.658" xlink:href="#m8a725fdee9" style="stroke:#000;stroke-width:.6"/></g></g></g><g id="ytick_12"><g id="line2d_21"><g><use x="45.478" y="151.041" xlink:href="#m8a725fdee9" style="stroke:#000;stroke-width:.6"/></g></g></g><g id="ytick_13"><g id="line2d_22"><g><use x="45.478" y="141.844" xlink:href="#m8a725fdee9" style="stroke:#000;stroke-width:.6"/></g></g></g><g id="ytick_14"><g id="line2d_23"><g><use x="45.478" y="133.733" xlink:href="#m8a725fdee9" style="stroke:#000;stroke-width:.6"/></g></g></g><g id="ytick_15"><g id="line2d_24"><g><use x="45.478" y="78.738" xlink:href="#m8a725fdee9" style="stroke:#000;stroke-width:.6"/></g></g></g><g id="ytick_16"><g id="line2d_25"><g><use x="45.478" y="50.813" xlink:href="#m8a725fdee9" style="stroke:#000;stroke-width:.6"/></g></g></g><g id="ytick_17"><g id="line2d_26"><g><use x="45.478" y="31" xlink:href="#m8a725fdee9" style="stroke:#000;stroke-width:.6"/></g></g></g><g id="text_13"><g transform="translate(14.798438 206.773125) rotate(-90) scale(0.1 -0.1)"><defs><path id="DejaVuSans-4d" d="M 628 4666 L 1569 4666 L 2759 1491 L 3956 4666 L 4897 4666 L 4897 0 L 4281 0 L 4281 4097 L 3078 897 L 2444 897 L 1241 4097 L 1241 0 L 628 0 L 628 4666 z" transform="scale(0.015625)"/><path id="DejaVuSans-6d" d="M 3328 2828 Q 3544 3216 3844 3400 Q 4144 3584 4550 3584 Q 5097 3584 5394 3201 Q 5691 2819 5691 2113 L 5691 0 L 5113 0 L 5113 2094 Q 5113 2597 4934 2840 Q 4756 3084 4391 3084 Q 3944 3084 3684 2787 Q 3425 2491 3425 1978 L 3425 0 L 2847 0 L 2847 2094 Q 2847 2600 2669 2842 Q 2491 3084 2119 3084 Q 1678 3084 1418 2786 Q 1159 2488 1159 1978 L 1159 0 L 581 0 L 581 3500 L 1159 3500 L 1159 2956 Q 1356 3278 1631 3431 Q 1906 3584 2284 3584 Q 2666 3584 2933 3390 Q 3200 3197 3328 2828 z" transform="scale(0.015625)"/><path id="DejaVuSans-79" d="M 2059 -325 Q 1816 -950 1584 -1140 Q 1353 -1331 966 -1331 L 506 -1331 L 506 -850 L 844 -850 Q 1081 -850 1212 -737 Q 1344 -625 1503 -206 L 1606 56 L 191 3500 L 800 3500 L 1894 763 L 2988 3500 L 3597 3500 L 2059 -325 z" transform="scale(0.015625)"/><path id="DejaVuSans-2f" d="M 1625 4666 L 2156 4666 L 531 -594 L 0 -594 L 1625 4666 z" transform="scale(0.015625)"/><path id="DejaVuSans-69" d="M 603 3500 L 1178 3500 L 1178 0 L 603 0 L 603 3500 z M 603 4863 L 1178 4863 L 1178 4134 L 603 4134 L 603 4863 z" transform="scale(0.015625)"/><path id="DejaVuSans-42" d="M 1259 2228 L 1259 519 L 2272 519 Q 2781 519 3026 730 Q 3272 941 3272 1375 Q 3272 1813 3026 2020 Q 2781 2228 2272 2228 L 1259 2228 z M 1259 4147 L 1259 2741 L 2194 2741 Q 2656 2741 2882 2914 Q 3109 3088 3109 3444 Q 3109 3797 2882 3972 Q 2656 4147 2194 4147 L 1259 4147 z M 628 4666 L 2241 4666 Q 2963 4666 3353 4366 Q 3744 4066 3744 3513 Q 3744 3084 3544 2831 Q 3344 2578 2956 2516 Q 3422 2416 3680 2098 Q 3938 1781 3938 1306 Q 3938 681 3513 340 Q 3088 0 2303 0 L 628 0 L 628 4666 z" transform="scale(0.015625)"/></defs><use xlink:href="#DejaVuSans-4d"/><use x="86.279" xlink:href="#DejaVuSans-65"/><use x="147.803" xlink:href="#DejaVuSans-6d"/><use x="245.215" xlink:href="#DejaVuSans-6f"/><use x="306.396" xlink:href="#DejaVuSans-72"/><use x="347.51" xlink:href="#DejaVuSans-79"/><use x="406.689" xlink:href="#DejaVuSans-2f"/><use x="440.381" xlink:href="#DejaVuSans-4d"/><use x="526.66" xlink:href="#DejaVuSans-69"/><use x="554.443" xlink:href="#DejaVuSans-42"/></g></g></g><g id="LineCollection_1"><path d="M 68.900276 215.338768 L 68.900276 214.891597" clip-path="url(#p01abdfd6f1)" style="fill:none;stroke:#1f77b4;stroke-width:1.5"/><path d="M 84.011341 214.434116 L 84.011341 213.594148" clip-path="url(#p01abdfd6f1)" style="fill:none;stroke:#1f77b4;stroke-width:1.5"/><path d="M 114.233471 209.530548 L 114.233471 206.386103" clip-path="url(#p01abdfd6f1)" style="fill:none;stroke:#1f77b4;stroke-width:1.5"/><path d="M 174.67773 199.260968 L 174.67773 195.50311" clip-path="url(#p01abdfd6f1)" style="fill:none;stroke:#1f77b4;stroke-width:1.5"/><path d="M 295.56625 184.274768 L 295.56625 181.94075" clip-path="url(#p01abdfd6f1)" style="fill:none;stroke:#1f77b4;stroke-width:1.5"/><path d="M 416.45477 172.664718 L 416.45477 171.478174" clip-path="url(#p01abdfd6f1)" style="fill:none;stroke:#1f77b4;stroke-width:1.5"/><path d="M 537.34329 170.233368 L 537.34329 167.658246" clip-path="url(#p01abdfd6f1)" style="fill:none;stroke:#1f77b4;stroke-width:1.5"/></g><g id="line2d_27"><defs><path id="m04ca5a48f9" d="M 2 0 L -2 -0" style="stroke:#1f77b4"/></defs><g clip-path="url(#p01abdfd6f1)"><use x="68.9" y="215.339" xlink:href="#m04ca5a48f9" style="fill:#1f77b4;stroke:#1f77b4"/><use x="84.011" y="214.434" xlink:href="#m04ca5a48f9" style="fill:#1f77b4;stroke:#1f77b4"/><use x="114.233" y="209.531" xlink:href="#m04ca5a48f9" style="fill:#1f77b4;stroke:#1f77b4"/><use x="174.678" y="199.261" xlink:href="#m04ca5a48f9" style="fill:#1f77b4;stroke:#1f77b4"/><use x="295.566" y="184.275" xlink:href="#m04ca5a48f9" style="fill:#1f77b4;stroke:#1f77b4"/><use x="416.455" y="172.665" xlink:href="#m04ca5a48f9" style="fill:#1f77b4;stroke:#1f77b4"/><use x="537.343" y="170.233" xlink:href="#m04ca5a48f9" style="fill:#1f77b4;stroke:#1f77b4"/></g></g><g id="line2d_28"><g clip-path="url(#p01abdfd6f1)"><use x="68.9" y="214.892" xlink:href="#m04ca5a48f9" style="fill:#1f77b4;stroke:#1f77b4"/><use x="84.011" y="213.594" xlink:href="#m04ca5a48f9" style="fill:#1f77b4;stroke:#1f77b4"/><use x="114.233" y="206.386" xlink:href="#m04ca5a48f9" style="fill:#1f77b4;stroke:#1f77b4"/><use x="174.678" y="195.503" xlink:href="#m04ca5a48f9" style="fill:#1f77b4;stroke:#1f77b4"/><use x="295.566" y="181.941" xlink:href="#m04ca5a48f9" style="fill:#1f77b4;stroke:#1f77b4"/><use x="416.455" y="171.478" xlink:href="#m04ca5a48f9" style="fill:#1f77b4;stroke:#1f77b4"/><use x="537.343" y="167.658" xlink:href="#m04ca5a48f9" style="fill:#1f77b4;stroke:#1f77b4"/></g></g><g id="LineCollection_2"><path d="M 68.900276 303.385662 L 68.900276 301.370907" clip-path="url(#p01abdfd6f1)" style="fill:none;stroke:#ff7f0e;stroke-width:1.5"/><path d="M 84.011341 272.698825 L 84.011341 271.284819" clip-path="url(#p01abdfd6f1)" style="fill:none;stroke:#ff7f0e;stroke-width:1.5"/><path d="M 114.233471 245.994991 L 114.233471 244.608179" clip-path="url(#p01abdfd6f1)" style="fill:none;stroke:#ff7f0e;stroke-width:1.5"/><path d="M 174.67773 233.989149 L 174.67773 230.777844" clip-path="url(#p01abdfd6f1)" style="fill:none;stroke:#ff7f0e;stroke-width:1.5"/><path d="M 295.56625 216.060403 L 295.56625 214.009224" clip-path="url(#p01abdfd6f1)" style="fill:none;stroke:#ff7f0e;stroke-width:1.5"/><path d="M 416.45477 207.425343 L 416.45477 206.299575" clip-path="url(#p01abdfd6f1)" style="fill:none;stroke:#ff7f0e;stroke-width:1.5"/><path d="M 537.34329 200.03811 L 537.34329 198.149149" clip-path="url(#p01abdfd6f1)" style="fill:none;stroke:#ff7f0e;stroke-width:1.5"/></g><g id="line2d_29"><defs><path id="mcee2b7222d" d="M 2 0 L -2 -0" style="stroke:#ff7f0e"/></defs><g clip-path="url(#p01abdfd6f1)"><use x="68.9" y="303.386" xlink:href="#mcee2b7222d" style="fill:#ff7f0e;stroke:#ff7f0e"/><use x="84.011" y="272.699" xlink:href="#mcee2b7222d" style="fill:#ff7f0e;stroke:#ff7f0e"/><use x="114.233" y="245.995" xlink:href="#mcee2b7222d" style="fill:#ff7f0e;stroke:#ff7f0e"/><use x="174.678" y="233.989" xlink:href="#mcee2b7222d" style="fill:#ff7f0e;stroke:#ff7f0e"/><use x="295.566" y="216.06" xlink:href="#mcee2b7222d" style="fill:#ff7f0e;stroke:#ff7f0e"/><use x="416.455" y="207.425" xlink:href="#mcee2b7222d" style="fill:#ff7f0e;stroke:#ff7f0e"/><use x="537.343" y="200.038" xlink:href="#mcee2b7222d" style="fill:#ff7f0e;stroke:#ff7f0e"/></g></g><g id="line2d_30"><g clip-path="url(#p01abdfd6f1)"><use x="68.9" y="301.371" xlink:href="#mcee2b7222d" style="fill:#ff7f0e;stroke:#ff7f0e"/><use x="84.011" y="271.285" xlink:href="#mcee2b7222d" style="fill:#ff7f0e;stroke:#ff7f0e"/><use x="114.233" y="244.608" xlink:href="#mcee2b7222d" style="fill:#ff7f0e;stroke:#ff7f0e"/><use x="174.678" y="230.778" xlink:href="#mcee2b7222d" style="fill:#ff7f0e;stroke:#ff7f0e"/><use x="295.566" y="214.009" xlink:href="#mcee2b7222d" style="fill:#ff7f0e;stroke:#ff7f0e"/><use x="416.455" y="206.3" xlink:href="#mcee2b7222d" style="fill:#ff7f0e;stroke:#ff7f0e"/><use x="537.343" y="198.149" xlink:href="#mcee2b7222d" style="fill:#ff7f0e;stroke:#ff7f0e"/></g></g><g id="LineCollection_3"><path d="M 68.900276 215.033992 L 68.900276 214.593535" clip-path="url(#p01abdfd6f1)" style="fill:none;stroke:#2ca02c;stroke-width:1.5"/><path d="M 84.011341 205.373176 L 84.011341 202.619029" clip-path="url(#p01abdfd6f1)" style="fill:none;stroke:#2ca02c;stroke-width:1.5"/><path d="M 114.233471 180.218234 L 114.233471 172.185804" clip-path="url(#p01abdfd6f1)" style="fill:none;stroke:#2ca02c;stroke-width:1.5"/><path d="M 174.67773 141.272101 L 174.67773 137.129655" clip-path="url(#p01abdfd6f1)" style="fill:none;stroke:#2ca02c;stroke-width:1.5"/><path d="M 295.56625 91.545979 L 295.56625 87.017378" clip-path="url(#p01abdfd6f1)" style="fill:none;stroke:#2ca02c;stroke-width:1.5"/><path d="M 416.45477 69.747332 L 416.45477 64.390806" clip-path="url(#p01abdfd6f1)" style="fill:none;stroke:#2ca02c;stroke-width:1.5"/><path d="M 537.34329 55.125123 L 537.34329 50.26023" clip-path="url(#p01abdfd6f1)" style="fill:none;stroke:#2ca02c;stroke-width:1.5"/></g><g id="line2d_31"><defs><path id="m15e1c4c6c9" d="M 2 0 L -2 -0" style="stroke:#2ca02c"/></defs><g clip-path="url(#p01abdfd6f1)"><use x="68.9" y="215.034" xlink:href="#m15e1c4c6c9" style="fill:#2ca02c;stroke:#2ca02c"/><use x="84.011" y="205.373" xlink:href="#m15e1c4c6c9" style="fill:#2ca02c;stroke:#2ca02c"/><use x="114.233" y="180.218" xlink:href="#m15e1c4c6c9" style="fill:#2ca02c;stroke:#2ca02c"/><use x="174.678" y="141.272" xlink:href="#m15e1c4c6c9" style="fill:#2ca02c;stroke:#2ca02c"/><use x="295.566" y="91.546" xlink:href="#m15e1c4c6c9" style="fill:#2ca02c;stroke:#2ca02c"/><use x="416.455" y="69.747" xlink:href="#m15e1c4c6c9" style="fill:#2ca02c;stroke:#2ca02c"/><use x="537.343" y="55.125" xlink:href="#m15e1c4c6c9" style="fill:#2ca02c;stroke:#2ca02c"/></g></g><g id="line2d_32"><g clip-path="url(#p01abdfd6f1)"><use x="68.9" y="214.594" xlink:href="#m15e1c4c6c9" style="fill:#2ca02c;stroke:#2ca02c"/><use x="84.011" y="202.619" xlink:href="#m15e1c4c6c9" style="fill:#2ca02c;stroke:#2ca02c"/><use x="114.233" y="172.186" xlink:href="#m15e1c4c6c9" style="fill:#2ca02c;stroke:#2ca02c"/><use x="174.678" y="137.13" xlink:href="#m15e1c4c6c9" style="fill:#2ca02c;stroke:#2ca02c"/><use x="295.566" y="87.017" xlink:href="#m15e1c4c6c9" style="fill:#2ca02c;stroke:#2ca02c"/><use x="416.455" y="64.391" xlink:href="#m15e1c4c6c9" style="fill:#2ca02c;stroke:#2ca02c"/><use x="537.343" y="50.26" xlink:href="#m15e1c4c6c9" style="fill:#2ca02c;stroke:#2ca02c"/></g></g><g id="LineCollection_4"><path d="M 68.900276 196.538478 L 68.900276 196.141994" clip-path="url(#p01abdfd6f1)" style="fill:none;stroke:#d62728;stroke-width:1.5"/><path d="M 84.011341 189.498282 L 84.011341 189.183665" clip-path="url(#p01abdfd6f1)" style="fill:none;stroke:#d62728;stroke-width:1.5"/><path d="M 114.233471 179.515644 L 114.233471 177.779128" clip-path="url(#p01abdfd6f1)" style="fill:none;stroke:#d62728;stroke-width:1.5"/><path d="M 174.67773 144.23925 L 174.67773 142.717866" clip-path="url(#p01abdfd6f1)" style="fill:none;stroke:#d62728;stroke-width:1.5"/><path d="M 295.56625 106.838842 L 295.56625 105.482138" clip-path="url(#p01abdfd6f1)" style="fill:none;stroke:#d62728;stroke-width:1.5"/><path d="M 416.45477 81.199144 L 416.45477 80.210127" clip-path="url(#p01abdfd6f1)" style="fill:none;stroke:#d62728;stroke-width:1.5"/><path d="M 537.34329 64.938484 L 537.34329 63.767878" clip-path="url(#p01abdfd6f1)" style="fill:none;stroke:#d62728;stroke-width:1.5"/></g><g id="line2d_33"><defs><path id="m16a048b227" d="M 2 0 L -2 -0" style="stroke:#d62728"/></defs><g clip-path="url(#p01abdfd6f1)"><use x="68.9" y="196.538" xlink:href="#m16a048b227" style="fill:#d62728;stroke:#d62728"/><use x="84.011" y="189.498" xlink:href="#m16a048b227" style="fill:#d62728;stroke:#d62728"/><use x="114.233" y="179.516" xlink:href="#m16a048b227" style="fill:#d62728;stroke:#d62728"/><use x="174.678" y="144.239" xlink:href="#m16a048b227" style="fill:#d62728;stroke:#d62728"/><use x="295.566" y="106.839" xlink:href="#m16a048b227" style="fill:#d62728;stroke:#d62728"/><use x="416.455" y="81.199" xlink:href="#m16a048b227" style="fill:#d62728;stroke:#d62728"/><use x="537.343" y="64.938" xlink:href="#m16a048b227" style="fill:#d62728;stroke:#d62728"/></g></g><g id="line2d_34"><g clip-path="url(#p01abdfd6f1)"><use x="68.9" y="196.142" xlink:href="#m16a048b227" style="fill:#d62728;stroke:#d62728"/><use x="84.011" y="189.184" xlink:href="#m16a048b227" style="fill:#d62728;stroke:#d62728"/><use x="114.233" y="177.779" xlink:href="#m16a048b227" style="fill:#d62728;stroke:#d62728"/><use x="174.678" y="142.718" xlink:href="#m16a048b227" style="fill:#d62728;stroke:#d62728"/><use x="295.566" y="105.482" xlink:href="#m16a048b227" style="fill:#d62728;stroke:#d62728"/><use x="416.455" y="80.21" xlink:href="#m16a048b227" style="fill:#d62728;stroke:#d62728"/><use x="537.343" y="63.768" xlink:href="#m16a048b227" style="fill:#d62728;stroke:#d62728"/></g></g><g id="LineCollection_5"><path d="M 68.900276 244.719515 L 68.900276 243.870162" clip-path="url(#p01abdfd6f1)" style="fill:none;stroke:#9467bd;stroke-width:1.5"/><path d="M 84.011341 239.308535 L 84.011341 238.710953" clip-path="url(#p01abdfd6f1)" style="fill:none;stroke:#9467bd;stroke-width:1.5"/><path d="M 114.233471 230.892069 L 114.233471 227.542129" clip-path="url(#p01abdfd6f1)" style="fill:none;stroke:#9467bd;stroke-width:1.5"/><path d="M 174.67773 221.336364 L 174.67773 219.080628" clip-path="url(#p01abdfd6f1)" style="fill:none;stroke:#9467bd;stroke-width:1.5"/><path d="M 295.56625 208.230783 L 295.56625 207.076542" clip-path="url(#p01abdfd6f1)" style="fill:none;stroke:#9467bd;stroke-width:1.5"/><path d="M 416.45477 203.425011 L 416.45477 200.000427" clip-path="url(#p01abdfd6f1)" style="fill:none;stroke:#9467bd;stroke-width:1.5"/><path d="M 537.34329 194.536641 L 537.34329 191.86129" clip-path="url(#p01abdfd6f1)" style="fill:none;stroke:#9467bd;stroke-width:1.5"/></g><g id="line2d_35"><defs><path id="m65dbbe6b34" d="M 2 0 L -2 -0" style="stroke:#9467bd"/></defs><g clip-path="url(#p01abdfd6f1)"><use x="68.9" y="244.72" xlink:href="#m65dbbe6b34" style="fill:#9467bd;stroke:#9467bd"/><use x="84.011" y="239.309" xlink:href="#m65dbbe6b34" style="fill:#9467bd;stroke:#9467bd"/><use x="114.233" y="230.892" xlink:href="#m65dbbe6b34" style="fill:#9467bd;stroke:#9467bd"/><use x="174.678" y="221.336" xlink:href="#m65dbbe6b34" style="fill:#9467bd;stroke:#9467bd"/><use x="295.566" y="208.231" xlink:href="#m65dbbe6b34" style="fill:#9467bd;stroke:#9467bd"/><use x="416.455" y="203.425" xlink:href="#m65dbbe6b34" style="fill:#9467bd;stroke:#9467bd"/><use x="537.343" y="194.537" xlink:href="#m65dbbe6b34" style="fill:#9467bd;stroke:#9467bd"/></g></g><g id="line2d_36"><g clip-path="url(#p01abdfd6f1)"><use x="68.9" y="243.87" xlink:href="#m65dbbe6b34" style="fill:#9467bd;stroke:#9467bd"/><use x="84.011" y="238.711" xlink:href="#m65dbbe6b34" style="fill:#9467bd;stroke:#9467bd"/><use x="114.233" y="227.542" xlink:href="#m65dbbe6b34" style="fill:#9467bd;stroke:#9467bd"/><use x="174.678" y="219.081" xlink:href="#m65dbbe6b34" style="fill:#9467bd;stroke:#9467bd"/><use x="295.566" y="207.077" xlink:href="#m65dbbe6b34" style="fill:#9467bd;stroke:#9467bd"/><use x="416.455" y="200" xlink:href="#m65dbbe6b34" style="fill:#9467bd;stroke:#9467bd"/><use x="537.343" y="191.861" xlink:href="#m65dbbe6b34" style="fill:#9467bd;stroke:#9467bd"/></g></g><g id="line2d_37"><path d="M 68.900276 215.114819 L 84.011341 214.012852 L 114.233471 207.940381 L 174.67773 197.356412 L 295.56625 183.097872 L 416.45477 172.068891 L 537.34329 168.933772" clip-path="url(#p01abdfd6f1)" style="fill:none;stroke:#1f77b4;stroke-width:1.5;stroke-linecap:square"/><defs><path id="mebf1bd25e6" d="M -0 2 L 2 -2 L -2 -2 z" style="stroke:#1f77b4;stroke-linejoin:miter"/></defs><g clip-path="url(#p01abdfd6f1)"><use x="68.9" y="215.115" xlink:href="#mebf1bd25e6" style="fill:#1f77b4;stroke:#1f77b4;stroke-linejoin:miter"/><use x="84.011" y="214.013" xlink:href="#mebf1bd25e6" style="fill:#1f77b4;stroke:#1f77b4;stroke-linejoin:miter"/><use x="114.233" y="207.94" xlink:href="#mebf1bd25e6" style="fill:#1f77b4;stroke:#1f77b4;stroke-linejoin:miter"/><use x="174.678" y="197.356" xlink:href="#mebf1bd25e6" style="fill:#1f77b4;stroke:#1f77b4;stroke-linejoin:miter"/><use x="295.566" y="183.098" xlink:href="#mebf1bd25e6" style="fill:#1f77b4;stroke:#1f77b4;stroke-linejoin:miter"/><use x="416.455" y="172.069" xlink:href="#mebf1bd25e6" style="fill:#1f77b4;stroke:#1f77b4;stroke-linejoin:miter"/><use x="537.343" y="168.934" xlink:href="#mebf1bd25e6" style="fill:#1f77b4;stroke:#1f77b4;stroke-linejoin:miter"/></g></g><g id="line2d_38"><path d="M 68.900276 302.370917 L 84.011341 271.988193 L 114.233471 245.298095 L 174.67773 232.364782 L 295.56625 215.027178 L 416.45477 206.860159 L 537.34329 199.087154" clip-path="url(#p01abdfd6f1)" style="fill:none;stroke:#ff7f0e;stroke-width:1.5;stroke-linecap:square"/><defs><path id="me67c0646c4" d="M 2 0 L -2 -2 L -2 2 z" style="stroke:#ff7f0e;stroke-linejoin:miter"/></defs><g clip-path="url(#p01abdfd6f1)"><use x="68.9" y="302.371" xlink:href="#me67c0646c4" style="fill:#ff7f0e;stroke:#ff7f0e;stroke-linejoin:miter"/><use x="84.011" y="271.988" xlink:href="#me67c0646c4" style="fill:#ff7f0e;stroke:#ff7f0e;stroke-linejoin:miter"/><use x="114.233" y="245.298" xlink:href="#me67c0646c4" style="fill:#ff7f0e;stroke:#ff7f0e;stroke-linejoin:miter"/><use x="174.678" y="232.365" xlink:href="#me67c0646c4" style="fill:#ff7f0e;stroke:#ff7f0e;stroke-linejoin:miter"/><use x="295.566" y="215.027" xlink:href="#me67c0646c4" style="fill:#ff7f0e;stroke:#ff7f0e;stroke-linejoin:miter"/><use x="416.455" y="206.86" xlink:href="#me67c0646c4" style="fill:#ff7f0e;stroke:#ff7f0e;stroke-linejoin:miter"/><use x="537.343" y="199.087" xlink:href="#me67c0646c4" style="fill:#ff7f0e;stroke:#ff7f0e;stroke-linejoin:miter"/></g></g><g id="line2d_39"><path d="M 68.900276 214.813412 L 84.011341 203.982336 L 114.233471 176.084983 L 174.67773 139.169738 L 295.56625 89.244463 L 416.45477 67.017006 L 537.34329 52.64973" clip-path="url(#p01abdfd6f1)" style="fill:none;stroke:#2ca02c;stroke-width:1.5;stroke-linecap:square"/><defs><path id="mabbd75e095" d="M 0 2 C 0.530406 2 1.03916 1.789267 1.414214 1.414214 C 1.789267 1.03916 2 0.530406 2 0 C 2 -0.530406 1.789267 -1.03916 1.414214 -1.414214 C 1.03916 -1.789267 0.530406 -2 0 -2 C -0.530406 -2 -1.03916 -1.789267 -1.414214 -1.414214 C -1.789267 -1.03916 -2 -0.530406 -2 0 C -2 0.530406 -1.789267 1.03916 -1.414214 1.414214 C -1.03916 1.789267 -0.530406 2 0 2 z" style="stroke:#2ca02c"/></defs><g clip-path="url(#p01abdfd6f1)"><use x="68.9" y="214.813" xlink:href="#mabbd75e095" style="fill:#2ca02c;stroke:#2ca02c"/><use x="84.011" y="203.982" xlink:href="#mabbd75e095" style="fill:#2ca02c;stroke:#2ca02c"/><use x="114.233" y="176.085" xlink:href="#mabbd75e095" style="fill:#2ca02c;stroke:#2ca02c"/><use x="174.678" y="139.17" xlink:href="#mabbd75e095" style="fill:#2ca02c;stroke:#2ca02c"/><use x="295.566" y="89.244" xlink:href="#mabbd75e095" style="fill:#2ca02c;stroke:#2ca02c"/><use x="416.455" y="67.017" xlink:href="#mabbd75e095" style="fill:#2ca02c;stroke:#2ca02c"/><use x="537.343" y="52.65" xlink:href="#mabbd75e095" style="fill:#2ca02c;stroke:#2ca02c"/></g></g><g id="line2d_40"><path d="M 68.900276 196.339951 L 84.011341 189.340794 L 114.233471 178.641913 L 174.67773 143.474357 L 295.56625 106.157149 L 416.45477 80.70286 L 537.34329 64.350694" clip-path="url(#p01abdfd6f1)" style="fill:none;stroke:#d62728;stroke-width:1.5;stroke-linecap:square"/><defs><path id="m16ce18ce60" d="M -2 2 L 2 2 L 2 -2 L -2 -2 z" style="stroke:#d62728;stroke-linejoin:miter"/></defs><g clip-path="url(#p01abdfd6f1)"><use x="68.9" y="196.34" xlink:href="#m16ce18ce60" style="fill:#d62728;stroke:#d62728;stroke-linejoin:miter"/><use x="84.011" y="189.341" xlink:href="#m16ce18ce60" style="fill:#d62728;stroke:#d62728;stroke-linejoin:miter"/><use x="114.233" y="178.642" xlink:href="#m16ce18ce60" style="fill:#d62728;stroke:#d62728;stroke-linejoin:miter"/><use x="174.678" y="143.474" xlink:href="#m16ce18ce60" style="fill:#d62728;stroke:#d62728;stroke-linejoin:miter"/><use x="295.566" y="106.157" xlink:href="#m16ce18ce60" style="fill:#d62728;stroke:#d62728;stroke-linejoin:miter"/><use x="416.455" y="80.703" xlink:href="#m16ce18ce60" style="fill:#d62728;stroke:#d62728;stroke-linejoin:miter"/><use x="537.343" y="64.351" xlink:href="#m16ce18ce60" style="fill:#d62728;stroke:#d62728;stroke-linejoin:miter"/></g></g><g id="line2d_41"><path d="M 68.900276 244.293529 L 84.011341 239.009096 L 114.233471 229.196733 L 174.67773 220.199261 L 295.56625 207.651244 L 416.45477 201.691435 L 537.34329 193.185976" clip-path="url(#p01abdfd6f1)" style="fill:none;stroke:#9467bd;stroke-width:1.5;stroke-linecap:square"/><defs><path id="md7c3ee29d9" d="M 0 -2 L -2 2 L 2 2 z" style="stroke:#9467bd;stroke-linejoin:miter"/></defs><g clip-path="url(#p01abdfd6f1)"><use x="68.9" y="244.294" xlink:href="#md7c3ee29d9" style="fill:#9467bd;stroke:#9467bd;stroke-linejoin:miter"/><use x="84.011" y="239.009" xlink:href="#md7c3ee29d9" style="fill:#9467bd;stroke:#9467bd;stroke-linejoin:miter"/><use x="114.233" y="229.197" xlink:href="#md7c3ee29d9" style="fill:#9467bd;stroke:#9467bd;stroke-linejoin:miter"/><use x="174.678" y="220.199" xlink:href="#md7c3ee29d9" style="fill:#9467bd;stroke:#9467bd;stroke-linejoin:miter"/><use x="295.566" y="207.651" xlink:href="#md7c3ee29d9" style="fill:#9467bd;stroke:#9467bd;stroke-linejoin:miter"/><use x="416.455" y="201.691" xlink:href="#md7c3ee29d9" style="fill:#9467bd;stroke:#9467bd;stroke-linejoin:miter"/><use x="537.343" y="193.186" xlink:href="#md7c3ee29d9" style="fill:#9467bd;stroke:#9467bd;stroke-linejoin:miter"/></g></g><g id="patch_3"><path d="M 45.478125 320.24 L 45.478125 31" style="fill:none;stroke:#000;stroke-width:.8;stroke-linejoin:miter;stroke-linecap:square"/></g><g id="patch_4"><path d="M 560.76544 320.24 L 560.76544 31" style="fill:none;stroke:#000;stroke-width:.8;stroke-linejoin:miter;stroke-linecap:square"/></g><g id="patch_5"><path d="M 45.478125 320.24 L 560.76544 320.24" style="fill:none;stroke:#000;stroke-width:.8;stroke-linejoin:miter;stroke-linecap:square"/></g><g id="patch_6"><path d="M 45.478125 31 L 560.76544 31" style="fill:none;stroke:#000;stroke-width:.8;stroke-linejoin:miter;stroke-linecap:square"/></g></g><g id="legend_1"><g id="LineCollection_6"><path d="M 54.252251 18.098438 L 54.252251 8.098438" style="fill:none;stroke:#1f77b4;stroke-width:1.5"/></g><g id="line2d_42"><g><use x="54.252" y="18.098" xlink:href="#m04ca5a48f9" style="fill:#1f77b4;stroke:#1f77b4"/></g></g><g id="line2d_43"><g><use x="54.252" y="8.098" xlink:href="#m04ca5a48f9" style="fill:#1f77b4;stroke:#1f77b4"/></g></g><g id="line2d_44"><path d="M 44.252251 13.098438 L 64.252251 13.098438" style="fill:none;stroke:#1f77b4;stroke-width:1.5;stroke-linecap:square"/></g><g id="line2d_45"><g><use x="54.252" y="13.098" xlink:href="#mebf1bd25e6" style="fill:#1f77b4;stroke:#1f77b4;stroke-linejoin:miter"/></g></g><g id="text_14"><g transform="translate(72.252251 16.598438) scale(0.1 -0.1)"><defs><path id="DejaVuSans-6e" d="M 3513 2113 L 3513 0 L 2938 0 L 2938 2094 Q 2938 2591 2744 2837 Q 2550 3084 2163 3084 Q 1697 3084 1428 2787 Q 1159 2491 1159 1978 L 1159 0 L 581 0 L 581 3500 L 1159 3500 L 1159 2956 Q 1366 3272 1645 3428 Q 1925 3584 2291 3584 Q 2894 3584 3203 3211 Q 3513 2838 3513 2113 z" transform="scale(0.015625)"/><path id="DejaVuSans-63" d="M 3122 3366 L 3122 2828 Q 2878 2963 2633 3030 Q 2388 3097 2138 3097 Q 1578 3097 1268 2742 Q 959 2388 959 1747 Q 959 1106 1268 751 Q 1578 397 2138 397 Q 2388 397 2633 464 Q 2878 531 3122 666 L 3122 134 Q 2881 22 2623 -34 Q 2366 -91 2075 -91 Q 1284 -91 818 406 Q 353 903 353 1747 Q 353 2603 823 3093 Q 1294 3584 2113 3584 Q 2378 3584 2631 3529 Q 2884 3475 3122 3366 z" transform="scale(0.015625)"/><path id="DejaVuSans-75" d="M 544 1381 L 544 3500 L 1119 3500 L 1119 1403 Q 1119 906 1312 657 Q 1506 409 1894 409 Q 2359 409 2629 706 Q 2900 1003 2900 1516 L 2900 3500 L 3475 3500 L 3475 0 L 2900 0 L 2900 538 Q 2691 219 2414 64 Q 2138 -91 1772 -91 Q 1169 -91 856 284 Q 544 659 544 1381 z M 1991 3584 L 1991 3584 z" transform="scale(0.015625)"/><path id="DejaVuSans-70" d="M 1159 525 L 1159 -1331 L 581 -1331 L 581 3500 L 1159 3500 L 1159 2969 Q 1341 3281 1617 3432 Q 1894 3584 2278 3584 Q 2916 3584 3314 3078 Q 3713 2572 3713 1747 Q 3713 922 3314 415 Q 2916 -91 2278 -91 Q 1894 -91 1617 61 Q 1341 213 1159 525 z M 3116 1747 Q 3116 2381 2855 2742 Q 2594 3103 2138 3103 Q 1681 3103 1420 2742 Q 1159 2381 1159 1747 Q 1159 1113 1420 752 Q 1681 391 2138 391 Q 2594 391 2855 752 Q 3116 1113 3116 1747 z" transform="scale(0.015625)"/></defs><use xlink:href="#DejaVuSans-43"/><use x="69.824" xlink:href="#DejaVuSans-6f"/><use x="131.006" xlink:href="#DejaVuSans-6e"/><use x="194.385" xlink:href="#DejaVuSans-63"/><use x="249.365" xlink:href="#DejaVuSans-75"/><use x="312.744" xlink:href="#DejaVuSans-72"/><use x="352.107" xlink:href="#DejaVuSans-72"/><use x="390.971" xlink:href="#DejaVuSans-65"/><use x="452.494" xlink:href="#DejaVuSans-6e"/><use x="515.873" xlink:href="#DejaVuSans-63"/><use x="570.854" xlink:href="#DejaVuSans-70"/><use x="634.33" xlink:href="#DejaVuSans-70"/></g></g><g id="LineCollection_7"><path d="M 172.035064 18.098438 L 172.035064 8.098438" style="fill:none;stroke:#ff7f0e;stroke-width:1.5"/></g><g id="line2d_46"><g><use x="172.035" y="18.098" xlink:href="#mcee2b7222d" style="fill:#ff7f0e;stroke:#ff7f0e"/></g></g><g id="line2d_47"><g><use x="172.035" y="8.098" xlink:href="#mcee2b7222d" style="fill:#ff7f0e;stroke:#ff7f0e"/></g></g><g id="line2d_48"><path d="M 162.035064 13.098438 L 182.035064 13.098438" style="fill:none;stroke:#ff7f0e;stroke-width:1.5;stroke-linecap:square"/></g><g id="line2d_49"><g><use x="172.035" y="13.098" xlink:href="#me67c0646c4" style="fill:#ff7f0e;stroke:#ff7f0e;stroke-linejoin:miter"/></g></g><g id="text_15"><g transform="translate(190.035064 16.598438) scale(0.1 -0.1)"><defs><path id="DejaVuSans-4c" d="M 628 4666 L 1259 4666 L 1259 531 L 3531 531 L 3531 0 L 628 0 L 628 4666 z" transform="scale(0.015625)"/><path id="DejaVuSans-62" d="M 3116 1747 Q 3116 2381 2855 2742 Q 2594 3103 2138 3103 Q 1681 3103 1420 2742 Q 1159 2381 1159 1747 Q 1159 1113 1420 752 Q 1681 391 2138 391 Q 2594 391 2855 752 Q 3116 1113 3116 1747 z M 1159 2969 Q 1341 3281 1617 3432 Q 1894 3584 2278 3584 Q 2916 3584 3314 3078 Q 3713 2572 3713 1747 Q 3713 922 3314 415 Q 2916 -91 2278 -91 Q 1894 -91 1617 61 Q 1341 213 1159 525 L 1159 0 L 581 0 L 581 4863 L 1159 4863 L 1159 2969 z" transform="scale(0.015625)"/><path id="DejaVuSans-66" d="M 2375 4863 L 2375 4384 L 1825 4384 Q 1516 4384 1395 4259 Q 1275 4134 1275 3809 L 1275 3500 L 2222 3500 L 2222 3053 L 1275 3053 L 1275 0 L 697 0 L 697 3053 L 147 3053 L 147 3500 L 697 3500 L 697 3744 Q 697 4328 969 4595 Q 1241 4863 1831 4863 L 2375 4863 z" transform="scale(0.015625)"/><path id="DejaVuSans-6b" d="M 581 4863 L 1159 4863 L 1159 1991 L 2875 3500 L 3609 3500 L 1753 1863 L 3688 0 L 2938 0 L 1159 1709 L 1159 0 L 581 0 L 581 4863 z" transform="scale(0.015625)"/></defs><use xlink:href="#DejaVuSans-4c"/><use x="55.713" xlink:href="#DejaVuSans-69"/><use x="83.496" xlink:href="#DejaVuSans-62"/><use x="146.973" xlink:href="#DejaVuSans-66"/><use x="182.178" xlink:href="#DejaVuSans-6f"/><use x="243.359" xlink:href="#DejaVuSans-72"/><use x="284.473" xlink:href="#DejaVuSans-6b"/></g></g><g id="LineCollection_8"><path d="M 254.274126 18.098438 L 254.274126 8.098438" style="fill:none;stroke:#2ca02c;stroke-width:1.5"/></g><g id="line2d_50"><g><use x="254.274" y="18.098" xlink:href="#m15e1c4c6c9" style="fill:#2ca02c;stroke:#2ca02c"/></g></g><g id="line2d_51"><g><use x="254.274" y="8.098" xlink:href="#m15e1c4c6c9" style="fill:#2ca02c;stroke:#2ca02c"/></g></g><g id="line2d_52"><path d="M 244.274126 13.098438 L 264.274126 13.098438" style="fill:none;stroke:#2ca02c;stroke-width:1.5;stroke-linecap:square"/></g><g id="line2d_53"><g><use x="254.274" y="13.098" xlink:href="#mabbd75e095" style="fill:#2ca02c;stroke:#2ca02c"/></g></g><g id="text_16"><g transform="translate(272.274126 16.598438) scale(0.1 -0.1)"><defs><path id="DejaVuSans-4f" d="M 2522 4238 Q 1834 4238 1429 3725 Q 1025 3213 1025 2328 Q 1025 1447 1429 934 Q 1834 422 2522 422 Q 3209 422 3611 934 Q 4013 1447 4013 2328 Q 4013 3213 3611 3725 Q 3209 4238 2522 4238 z M 2522 4750 Q 3503 4750 4090 4092 Q 4678 3434 4678 2328 Q 4678 1225 4090 567 Q 3503 -91 2522 -91 Q 1538 -91 948 565 Q 359 1222 359 2328 Q 359 3434 948 4092 Q 1538 4750 2522 4750 z" transform="scale(0.015625)"/><path id="DejaVuSans-50" d="M 1259 4147 L 1259 2394 L 2053 2394 Q 2494 2394 2734 2622 Q 2975 2850 2975 3272 Q 2975 3691 2734 3919 Q 2494 4147 2053 4147 L 1259 4147 z M 628 4666 L 2053 4666 Q 2838 4666 3239 4311 Q 3641 3956 3641 3272 Q 3641 2581 3239 2228 Q 2838 1875 2053 1875 L 1259 1875 L 1259 0 L 628 0 L 628 4666 z" transform="scale(0.015625)"/></defs><use xlink:href="#DejaVuSans-4f"/><use x="78.711" xlink:href="#DejaVuSans-70"/><use x="142.188" xlink:href="#DejaVuSans-65"/><use x="203.711" xlink:href="#DejaVuSans-6e"/><use x="267.09" xlink:href="#DejaVuSans-4d"/><use x="353.369" xlink:href="#DejaVuSans-50"/></g></g><g id="LineCollection_9"><path d="M 343.642876 18.098438 L 343.642876 8.098438" style="fill:none;stroke:#d62728;stroke-width:1.5"/></g><g id="line2d_54"><g><use x="343.643" y="18.098" xlink:href="#m16a048b227" style="fill:#d62728;stroke:#d62728"/></g></g><g id="line2d_55"><g><use x="343.643" y="8.098" xlink:href="#m16a048b227" style="fill:#d62728;stroke:#d62728"/></g></g><g id="line2d_56"><path d="M 333.642876 13.098438 L 353.642876 13.098438" style="fill:none;stroke:#d62728;stroke-width:1.5;stroke-linecap:square"/></g><g id="line2d_57"><g><use x="343.643" y="13.098" xlink:href="#m16ce18ce60" style="fill:#d62728;stroke:#d62728;stroke-linejoin:miter"/></g></g><g id="text_17"><g transform="translate(361.642876 16.598438) scale(0.1 -0.1)"><defs><path id="DejaVuSans-54" d="M -19 4666 L 3928 4666 L 3928 4134 L 2272 4134 L 2272 0 L 1638 0 L 1638 4134 L -19 4134 L -19 4666 z" transform="scale(0.015625)"/></defs><use xlink:href="#DejaVuSans-4f"/><use x="78.711" xlink:href="#DejaVuSans-6e"/><use x="142.09" xlink:href="#DejaVuSans-65"/><use x="203.613" xlink:href="#DejaVuSans-54"/><use x="264.697" xlink:href="#DejaVuSans-42"/><use x="333.301" xlink:href="#DejaVuSans-42"/></g></g><g id="LineCollection_10"><path d="M 431.835064 18.098438 L 431.835064 8.098438" style="fill:none;stroke:#9467bd;stroke-width:1.5"/></g><g id="line2d_58"><g><use x="431.835" y="18.098" xlink:href="#m65dbbe6b34" style="fill:#9467bd;stroke:#9467bd"/></g></g><g id="line2d_59"><g><use x="431.835" y="8.098" xlink:href="#m65dbbe6b34" style="fill:#9467bd;stroke:#9467bd"/></g></g><g id="line2d_60"><path d="M 421.835064 13.098438 L 441.835064 13.098438" style="fill:none;stroke:#9467bd;stroke-width:1.5;stroke-linecap:square"/></g><g id="line2d_61"><g><use x="431.835" y="13.098" xlink:href="#md7c3ee29d9" style="fill:#9467bd;stroke:#9467bd;stroke-linejoin:miter"/></g></g><g id="text_18"><g transform="translate(449.835064 16.598438) scale(0.1 -0.1)"><defs><path id="DejaVuSans-61" d="M 2194 1759 Q 1497 1759 1228 1600 Q 959 1441 959 1056 Q 959 750 1161 570 Q 1363 391 1709 391 Q 2188 391 2477 730 Q 2766 1069 2766 1631 L 2766 1759 L 2194 1759 z M 3341 1997 L 3341 0 L 2766 0 L 2766 531 Q 2569 213 2275 61 Q 1981 -91 1556 -91 Q 1019 -91 701 211 Q 384 513 384 1019 Q 384 1609 779 1909 Q 1175 2209 1959 2209 L 2766 2209 L 2766 2266 Q 2766 2663 2505 2880 Q 2244 3097 1772 3097 Q 1472 3097 1187 3025 Q 903 2953 641 2809 L 641 3341 Q 956 3463 1253 3523 Q 1550 3584 1831 3584 Q 2591 3584 2966 3190 Q 3341 2797 3341 1997 z" transform="scale(0.015625)"/></defs><use xlink:href="#DejaVuSans-54"/><use x="44.084" xlink:href="#DejaVuSans-6f"/><use x="105.266" xlink:href="#DejaVuSans-6f"/><use x="166.447" xlink:href="#DejaVuSans-4d"/><use x="252.727" xlink:href="#DejaVuSans-61"/><use x="314.006" xlink:href="#DejaVuSans-6e"/><use x="377.385" xlink:href="#DejaVuSans-79"/><use x="436.564" xlink:href="#DejaVuSans-43"/><use x="506.389" xlink:href="#DejaVuSans-6f"/><use x="567.57" xlink:href="#DejaVuSans-6f"/><use x="628.752" xlink:href="#DejaVuSans-6b"/><use x="686.662" xlink:href="#DejaVuSans-73"/></g></g></g></g><defs><clipPath id="p01abdfd6f1"><rect width="515.287" height="289.24" x="45.478" y="31"/></clipPath></defs></svg>