<svg xmlns="http://www.w3.org/2000/svg" xmlns:xlink="http://www.w3.org/1999/xlink" width="614.4" height="460.8" version="1.1" viewBox="0 0 460.8 345.6"><metadata><rdf:RDF xmlns:cc="http://creativecommons.org/ns#" xmlns:dc="http://purl.org/dc/elements/1.1/" xmlns:rdf="http://www.w3.org/1999/02/22-rdf-syntax-ns#"><cc:Work><dc:type rdf:resource="http://purl.org/dc/dcmitype/StillImage"/><dc:date>2023-03-01T10:56:50.614021</dc:date><dc:format>image/svg+xml</dc:format><dc:creator><cc:Agent><dc:title>Matplotlib v3.7.0, https://matplotlib.org/</dc:title></cc:Agent></dc:creator></cc:Work></rdf:RDF></metadata><defs><style type="text/css">*{stroke-linejoin:round;stroke-linecap:butt}</style></defs><g id="figure_1"><g id="patch_1"><path d="M 0 345.6 L 460.8 345.6 L 460.8 0 L 0 0 z" style="fill:#fff"/></g><g id="axes_1"><g id="patch_2"><path d="M 57.6 307.584 L 414.72 307.584 L 414.72 41.472 L 57.6 41.472 z" style="fill:#fff"/></g><g id="matplotlib.axis_1"><g id="xtick_1"><g id="line2d_1"><defs><path id="m11cea97362" d="M 0 0 L 0 3.5" style="stroke:#000;stroke-width:.8"/></defs><g><use x="68.679" y="307.584" xlink:href="#m11cea97362" style="stroke:#000;stroke-width:.8"/></g></g><g id="text_1"><g transform="translate(65.498231 322.182437) scale(0.1 -0.1)"><defs><path id="DejaVuSans-30" d="M 2034 4250 Q 1547 4250 1301 3770 Q 1056 3291 1056 2328 Q 1056 1369 1301 889 Q 1547 409 2034 409 Q 2525 409 2770 889 Q 3016 1369 3016 2328 Q 3016 3291 2770 3770 Q 2525 4250 2034 4250 z M 2034 4750 Q 2819 4750 3233 4129 Q 3647 3509 3647 2328 Q 3647 1150 3233 529 Q 2819 -91 2034 -91 Q 1250 -91 836 529 Q 422 1150 422 2328 Q 422 3509 836 4129 Q 1250 4750 2034 4750 z" transform="scale(0.015625)"/></defs><use xlink:href="#DejaVuSans-30"/></g></g></g><g id="xtick_2"><g id="line2d_2"><g><use x="120.212" y="307.584" xlink:href="#m11cea97362" style="stroke:#000;stroke-width:.8"/></g></g><g id="text_2"><g transform="translate(113.849448 322.182437) scale(0.1 -0.1)"><defs><path id="DejaVuSans-31" d="M 794 531 L 1825 531 L 1825 4091 L 703 3866 L 703 4441 L 1819 4666 L 2450 4666 L 2450 531 L 3481 531 L 3481 0 L 794 0 L 794 531 z" transform="scale(0.015625)"/></defs><use xlink:href="#DejaVuSans-31"/><use x="63.623" xlink:href="#DejaVuSans-30"/></g></g></g><g id="xtick_3"><g id="line2d_3"><g><use x="171.744" y="307.584" xlink:href="#m11cea97362" style="stroke:#000;stroke-width:.8"/></g></g><g id="text_3"><g transform="translate(165.381916 322.182437) scale(0.1 -0.1)"><defs><path id="DejaVuSans-32" d="M 1228 531 L 3431 531 L 3431 0 L 469 0 L 469 531 Q 828 903 1448 1529 Q 2069 2156 2228 2338 Q 2531 2678 2651 2914 Q 2772 3150 2772 3378 Q 2772 3750 2511 3984 Q 2250 4219 1831 4219 Q 1534 4219 1204 4116 Q 875 4013 500 3803 L 500 4441 Q 881 4594 1212 4672 Q 1544 4750 1819 4750 Q 2544 4750 2975 4387 Q 3406 4025 3406 3419 Q 3406 3131 3298 2873 Q 3191 2616 2906 2266 Q 2828 2175 2409 1742 Q 1991 1309 1228 531 z" transform="scale(0.015625)"/></defs><use xlink:href="#DejaVuSans-32"/><use x="63.623" xlink:href="#DejaVuSans-30"/></g></g></g><g id="xtick_4"><g id="line2d_4"><g><use x="223.277" y="307.584" xlink:href="#m11cea97362" style="stroke:#000;stroke-width:.8"/></g></g><g id="text_4"><g transform="translate(216.914383 322.182437) scale(0.1 -0.1)"><defs><path id="DejaVuSans-33" d="M 2597 2516 Q 3050 2419 3304 2112 Q 3559 1806 3559 1356 Q 3559 666 3084 287 Q 2609 -91 1734 -91 Q 1441 -91 1130 -33 Q 819 25 488 141 L 488 750 Q 750 597 1062 519 Q 1375 441 1716 441 Q 2309 441 2620 675 Q 2931 909 2931 1356 Q 2931 1769 2642 2001 Q 2353 2234 1838 2234 L 1294 2234 L 1294 2753 L 1863 2753 Q 2328 2753 2575 2939 Q 2822 3125 2822 3475 Q 2822 3834 2567 4026 Q 2313 4219 1838 4219 Q 1578 4219 1281 4162 Q 984 4106 628 3988 L 628 4550 Q 988 4650 1302 4700 Q 1616 4750 1894 4750 Q 2613 4750 3031 4423 Q 3450 4097 3450 3541 Q 3450 3153 3228 2886 Q 3006 2619 2597 2516 z" transform="scale(0.015625)"/></defs><use xlink:href="#DejaVuSans-33"/><use x="63.623" xlink:href="#DejaVuSans-30"/></g></g></g><g id="xtick_5"><g id="line2d_5"><g><use x="274.809" y="307.584" xlink:href="#m11cea97362" style="stroke:#000;stroke-width:.8"/></g></g><g id="text_5"><g transform="translate(268.446851 322.182437) scale(0.1 -0.1)"><defs><path id="DejaVuSans-34" d="M 2419 4116 L 825 1625 L 2419 1625 L 2419 4116 z M 2253 4666 L 3047 4666 L 3047 1625 L 3713 1625 L 3713 1100 L 3047 1100 L 3047 0 L 2419 0 L 2419 1100 L 313 1100 L 313 1709 L 2253 4666 z" transform="scale(0.015625)"/></defs><use xlink:href="#DejaVuSans-34"/><use x="63.623" xlink:href="#DejaVuSans-30"/></g></g></g><g id="xtick_6"><g id="line2d_6"><g><use x="326.342" y="307.584" xlink:href="#m11cea97362" style="stroke:#000;stroke-width:.8"/></g></g><g id="text_6"><g transform="translate(319.979318 322.182437) scale(0.1 -0.1)"><defs><path id="DejaVuSans-35" d="M 691 4666 L 3169 4666 L 3169 4134 L 1269 4134 L 1269 2991 Q 1406 3038 1543 3061 Q 1681 3084 1819 3084 Q 2600 3084 3056 2656 Q 3513 2228 3513 1497 Q 3513 744 3044 326 Q 2575 -91 1722 -91 Q 1428 -91 1123 -41 Q 819 9 494 109 L 494 744 Q 775 591 1075 516 Q 1375 441 1709 441 Q 2250 441 2565 725 Q 2881 1009 2881 1497 Q 2881 1984 2565 2268 Q 2250 2553 1709 2553 Q 1456 2553 1204 2497 Q 953 2441 691 2322 L 691 4666 z" transform="scale(0.015625)"/></defs><use xlink:href="#DejaVuSans-35"/><use x="63.623" xlink:href="#DejaVuSans-30"/></g></g></g><g id="xtick_7"><g id="line2d_7"><g><use x="377.874" y="307.584" xlink:href="#m11cea97362" style="stroke:#000;stroke-width:.8"/></g></g><g id="text_7"><g transform="translate(371.511786 322.182437) scale(0.1 -0.1)"><defs><path id="DejaVuSans-36" d="M 2113 2584 Q 1688 2584 1439 2293 Q 1191 2003 1191 1497 Q 1191 994 1439 701 Q 1688 409 2113 409 Q 2538 409 2786 701 Q 3034 994 3034 1497 Q 3034 2003 2786 2293 Q 2538 2584 2113 2584 z M 3366 4563 L 3366 3988 Q 3128 4100 2886 4159 Q 2644 4219 2406 4219 Q 1781 4219 1451 3797 Q 1122 3375 1075 2522 Q 1259 2794 1537 2939 Q 1816 3084 2150 3084 Q 2853 3084 3261 2657 Q 3669 2231 3669 1497 Q 3669 778 3244 343 Q 2819 -91 2113 -91 Q 1303 -91 875 529 Q 447 1150 447 2328 Q 447 3434 972 4092 Q 1497 4750 2381 4750 Q 2619 4750 2861 4703 Q 3103 4656 3366 4563 z" transform="scale(0.015625)"/></defs><use xlink:href="#DejaVuSans-36"/><use x="63.623" xlink:href="#DejaVuSans-30"/></g></g></g><g id="text_8"><g transform="translate(180.425625 335.860562) scale(0.1 -0.1)"><defs><path id="DejaVuSans-4e" d="M 628 4666 L 1478 4666 L 3547 763 L 3547 4666 L 4159 4666 L 4159 0 L 3309 0 L 1241 3903 L 1241 0 L 628 0 L 628 4666 z" transform="scale(0.015625)"/><path id="DejaVuSans-75" d="M 544 1381 L 544 3500 L 1119 3500 L 1119 1403 Q 1119 906 1312 657 Q 1506 409 1894 409 Q 2359 409 2629 706 Q 2900 1003 2900 1516 L 2900 3500 L 3475 3500 L 3475 0 L 2900 0 L 2900 538 Q 2691 219 2414 64 Q 2138 -91 1772 -91 Q 1169 -91 856 284 Q 544 659 544 1381 z M 1991 3584 L 1991 3584 z" transform="scale(0.015625)"/><path id="DejaVuSans-6d" d="M 3328 2828 Q 3544 3216 3844 3400 Q 4144 3584 4550 3584 Q 5097 3584 5394 3201 Q 5691 2819 5691 2113 L 5691 0 L 5113 0 L 5113 2094 Q 5113 2597 4934 2840 Q 4756 3084 4391 3084 Q 3944 3084 3684 2787 Q 3425 2491 3425 1978 L 3425 0 L 2847 0 L 2847 2094 Q 2847 2600 2669 2842 Q 2491 3084 2119 3084 Q 1678 3084 1418 2786 Q 1159 2488 1159 1978 L 1159 0 L 581 0 L 581 3500 L 1159 3500 L 1159 2956 Q 1356 3278 1631 3431 Q 1906 3584 2284 3584 Q 2666 3584 2933 3390 Q 3200 3197 3328 2828 z" transform="scale(0.015625)"/><path id="DejaVuSans-62" d="M 3116 1747 Q 3116 2381 2855 2742 Q 2594 3103 2138 3103 Q 1681 3103 1420 2742 Q 1159 2381 1159 1747 Q 1159 1113 1420 752 Q 1681 391 2138 391 Q 2594 391 2855 752 Q 3116 1113 3116 1747 z M 1159 2969 Q 1341 3281 1617 3432 Q 1894 3584 2278 3584 Q 2916 3584 3314 3078 Q 3713 2572 3713 1747 Q 3713 922 3314 415 Q 2916 -91 2278 -91 Q 1894 -91 1617 61 Q 1341 213 1159 525 L 1159 0 L 581 0 L 581 4863 L 1159 4863 L 1159 2969 z" transform="scale(0.015625)"/><path id="DejaVuSans-65" d="M 3597 1894 L 3597 1613 L 953 1613 Q 991 1019 1311 708 Q 1631 397 2203 397 Q 2534 397 2845 478 Q 3156 559 3463 722 L 3463 178 Q 3153 47 2828 -22 Q 2503 -91 2169 -91 Q 1331 -91 842 396 Q 353 884 353 1716 Q 353 2575 817 3079 Q 1281 3584 2069 3584 Q 2775 3584 3186 3129 Q 3597 2675 3597 1894 z M 3022 2063 Q 3016 2534 2758 2815 Q 2500 3097 2075 3097 Q 1594 3097 1305 2825 Q 1016 2553 972 2059 L 3022 2063 z" transform="scale(0.015625)"/><path id="DejaVuSans-72" d="M 2631 2963 Q 2534 3019 2420 3045 Q 2306 3072 2169 3072 Q 1681 3072 1420 2755 Q 1159 2438 1159 1844 L 1159 0 L 581 0 L 581 3500 L 1159 3500 L 1159 2956 Q 1341 3275 1631 3429 Q 1922 3584 2338 3584 Q 2397 3584 2469 3576 Q 2541 3569 2628 3553 L 2631 2963 z" transform="scale(0.015625)"/><path id="DejaVuSans-20" transform="scale(0.015625)"/><path id="DejaVuSans-6f" d="M 1959 3097 Q 1497 3097 1228 2736 Q 959 2375 959 1747 Q 959 1119 1226 758 Q 1494 397 1959 397 Q 2419 397 2687 759 Q 2956 1122 2956 1747 Q 2956 2369 2687 2733 Q 2419 3097 1959 3097 z M 1959 3584 Q 2709 3584 3137 3096 Q 3566 2609 3566 1747 Q 3566 888 3137 398 Q 2709 -91 1959 -91 Q 1206 -91 779 398 Q 353 888 353 1747 Q 353 2609 779 3096 Q 1206 3584 1959 3584 z" transform="scale(0.015625)"/><path id="DejaVuSans-66" d="M 2375 4863 L 2375 4384 L 1825 4384 Q 1516 4384 1395 4259 Q 1275 4134 1275 3809 L 1275 3500 L 2222 3500 L 2222 3053 L 1275 3053 L 1275 0 L 697 0 L 697 3053 L 147 3053 L 147 3500 L 697 3500 L 697 3744 Q 697 4328 969 4595 Q 1241 4863 1831 4863 L 2375 4863 z" transform="scale(0.015625)"/><path id="DejaVuSans-74" d="M 1172 4494 L 1172 3500 L 2356 3500 L 2356 3053 L 1172 3053 L 1172 1153 Q 1172 725 1289 603 Q 1406 481 1766 481 L 2356 481 L 2356 0 L 1766 0 Q 1100 0 847 248 Q 594 497 594 1153 L 594 3053 L 172 3053 L 172 3500 L 594 3500 L 594 4494 L 1172 4494 z" transform="scale(0.015625)"/><path id="DejaVuSans-68" d="M 3513 2113 L 3513 0 L 2938 0 L 2938 2094 Q 2938 2591 2744 2837 Q 2550 3084 2163 3084 Q 1697 3084 1428 2787 Q 1159 2491 1159 1978 L 1159 0 L 581 0 L 581 4863 L 1159 4863 L 1159 2956 Q 1366 3272 1645 3428 Q 1925 3584 2291 3584 Q 2894 3584 3203 3211 Q 3513 2838 3513 2113 z" transform="scale(0.015625)"/><path id="DejaVuSans-61" d="M 2194 1759 Q 1497 1759 1228 1600 Q 959 1441 959 1056 Q 959 750 1161 570 Q 1363 391 1709 391 Q 2188 391 2477 730 Q 2766 1069 2766 1631 L 2766 1759 L 2194 1759 z M 3341 1997 L 3341 0 L 2766 0 L 2766 531 Q 2569 213 2275 61 Q 1981 -91 1556 -91 Q 1019 -91 701 211 Q 384 513 384 1019 Q 384 1609 779 1909 Q 1175 2209 1959 2209 L 2766 2209 L 2766 2266 Q 2766 2663 2505 2880 Q 2244 3097 1772 3097 Q 1472 3097 1187 3025 Q 903 2953 641 2809 L 641 3341 Q 956 3463 1253 3523 Q 1550 3584 1831 3584 Q 2591 3584 2966 3190 Q 3341 2797 3341 1997 z" transform="scale(0.015625)"/><path id="DejaVuSans-64" d="M 2906 2969 L 2906 4863 L 3481 4863 L 3481 0 L 2906 0 L 2906 525 Q 2725 213 2448 61 Q 2172 -91 1784 -91 Q 1150 -91 751 415 Q 353 922 353 1747 Q 353 2572 751 3078 Q 1150 3584 1784 3584 Q 2172 3584 2448 3432 Q 2725 3281 2906 2969 z M 947 1747 Q 947 1113 1208 752 Q 1469 391 1925 391 Q 2381 391 2643 752 Q 2906 1113 2906 1747 Q 2906 2381 2643 2742 Q 2381 3103 1925 3103 Q 1469 3103 1208 2742 Q 947 2381 947 1747 z" transform="scale(0.015625)"/><path id="DejaVuSans-73" d="M 2834 3397 L 2834 2853 Q 2591 2978 2328 3040 Q 2066 3103 1784 3103 Q 1356 3103 1142 2972 Q 928 2841 928 2578 Q 928 2378 1081 2264 Q 1234 2150 1697 2047 L 1894 2003 Q 2506 1872 2764 1633 Q 3022 1394 3022 966 Q 3022 478 2636 193 Q 2250 -91 1575 -91 Q 1294 -91 989 -36 Q 684 19 347 128 L 347 722 Q 666 556 975 473 Q 1284 391 1588 391 Q 1994 391 2212 530 Q 2431 669 2431 922 Q 2431 1156 2273 1281 Q 2116 1406 1581 1522 L 1381 1569 Q 847 1681 609 1914 Q 372 2147 372 2553 Q 372 3047 722 3315 Q 1072 3584 1716 3584 Q 2034 3584 2315 3537 Q 2597 3491 2834 3397 z" transform="scale(0.015625)"/><path id="DejaVuSans-28" d="M 1984 4856 Q 1566 4138 1362 3434 Q 1159 2731 1159 2009 Q 1159 1288 1364 580 Q 1569 -128 1984 -844 L 1484 -844 Q 1016 -109 783 600 Q 550 1309 550 2009 Q 550 2706 781 3412 Q 1013 4119 1484 4856 L 1984 4856 z" transform="scale(0.015625)"/><path id="DejaVuSans-6e" d="M 3513 2113 L 3513 0 L 2938 0 L 2938 2094 Q 2938 2591 2744 2837 Q 2550 3084 2163 3084 Q 1697 3084 1428 2787 Q 1159 2491 1159 1978 L 1159 0 L 581 0 L 581 3500 L 1159 3500 L 1159 2956 Q 1366 3272 1645 3428 Q 1925 3584 2291 3584 Q 2894 3584 3203 3211 Q 3513 2838 3513 2113 z" transform="scale(0.015625)"/><path id="DejaVuSans-29" d="M 513 4856 L 1013 4856 Q 1481 4119 1714 3412 Q 1947 2706 1947 2009 Q 1947 1309 1714 600 Q 1481 -109 1013 -844 L 513 -844 Q 928 -128 1133 580 Q 1338 1288 1338 2009 Q 1338 2731 1133 3434 Q 928 4138 513 4856 z" transform="scale(0.015625)"/></defs><use xlink:href="#DejaVuSans-4e"/><use x="74.805" xlink:href="#DejaVuSans-75"/><use x="138.184" xlink:href="#DejaVuSans-6d"/><use x="235.596" xlink:href="#DejaVuSans-62"/><use x="299.072" xlink:href="#DejaVuSans-65"/><use x="360.596" xlink:href="#DejaVuSans-72"/><use x="401.709" xlink:href="#DejaVuSans-20"/><use x="433.496" xlink:href="#DejaVuSans-6f"/><use x="494.678" xlink:href="#DejaVuSans-66"/><use x="529.883" xlink:href="#DejaVuSans-20"/><use x="561.67" xlink:href="#DejaVuSans-74"/><use x="600.879" xlink:href="#DejaVuSans-68"/><use x="664.258" xlink:href="#DejaVuSans-72"/><use x="703.121" xlink:href="#DejaVuSans-65"/><use x="764.645" xlink:href="#DejaVuSans-61"/><use x="825.924" xlink:href="#DejaVuSans-64"/><use x="889.4" xlink:href="#DejaVuSans-73"/><use x="941.5" xlink:href="#DejaVuSans-20"/><use x="973.287" xlink:href="#DejaVuSans-28"/><use x="1012.301" xlink:href="#DejaVuSans-6e"/><use x="1075.68" xlink:href="#DejaVuSans-29"/></g></g></g><g id="matplotlib.axis_2"><g id="ytick_1"><g id="line2d_8"><defs><path id="mc6ee252a3e" d="M 0 0 L -3.5 0" style="stroke:#000;stroke-width:.8"/></defs><g><use x="57.6" y="297.321" xlink:href="#mc6ee252a3e" style="stroke:#000;stroke-width:.8"/></g></g><g id="text_9"><g transform="translate(44.2375 301.120521) scale(0.1 -0.1)"><use xlink:href="#DejaVuSans-30"/></g></g></g><g id="ytick_2"><g id="line2d_9"><g><use x="57.6" y="258.102" xlink:href="#mc6ee252a3e" style="stroke:#000;stroke-width:.8"/></g></g><g id="text_10"><g transform="translate(37.875 261.901599) scale(0.1 -0.1)"><use xlink:href="#DejaVuSans-31"/><use x="63.623" xlink:href="#DejaVuSans-30"/></g></g></g><g id="ytick_3"><g id="line2d_10"><g><use x="57.6" y="218.883" xlink:href="#mc6ee252a3e" style="stroke:#000;stroke-width:.8"/></g></g><g id="text_11"><g transform="translate(37.875 222.682676) scale(0.1 -0.1)"><use xlink:href="#DejaVuSans-32"/><use x="63.623" xlink:href="#DejaVuSans-30"/></g></g></g><g id="ytick_4"><g id="line2d_11"><g><use x="57.6" y="179.665" xlink:href="#mc6ee252a3e" style="stroke:#000;stroke-width:.8"/></g></g><g id="text_12"><g transform="translate(37.875 183.463754) scale(0.1 -0.1)"><use xlink:href="#DejaVuSans-33"/><use x="63.623" xlink:href="#DejaVuSans-30"/></g></g></g><g id="ytick_5"><g id="line2d_12"><g><use x="57.6" y="140.446" xlink:href="#mc6ee252a3e" style="stroke:#000;stroke-width:.8"/></g></g><g id="text_13"><g transform="translate(37.875 144.244831) scale(0.1 -0.1)"><use xlink:href="#DejaVuSans-34"/><use x="63.623" xlink:href="#DejaVuSans-30"/></g></g></g><g id="ytick_6"><g id="line2d_13"><g><use x="57.6" y="101.227" xlink:href="#mc6ee252a3e" style="stroke:#000;stroke-width:.8"/></g></g><g id="text_14"><g transform="translate(37.875 105.025909) scale(0.1 -0.1)"><use xlink:href="#DejaVuSans-35"/><use x="63.623" xlink:href="#DejaVuSans-30"/></g></g></g><g id="ytick_7"><g id="line2d_14"><g><use x="57.6" y="62.008" xlink:href="#mc6ee252a3e" style="stroke:#000;stroke-width:.8"/></g></g><g id="text_15"><g transform="translate(37.875 65.806986) scale(0.1 -0.1)"><use xlink:href="#DejaVuSans-36"/><use x="63.623" xlink:href="#DejaVuSans-30"/></g></g></g><g id="text_16"><g transform="translate(31.795312 223.262375) rotate(-90) scale(0.1 -0.1)"><defs><path id="DejaVuSans-53" d="M 3425 4513 L 3425 3897 Q 3066 4069 2747 4153 Q 2428 4238 2131 4238 Q 1616 4238 1336 4038 Q 1056 3838 1056 3469 Q 1056 3159 1242 3001 Q 1428 2844 1947 2747 L 2328 2669 Q 3034 2534 3370 2195 Q 3706 1856 3706 1288 Q 3706 609 3251 259 Q 2797 -91 1919 -91 Q 1588 -91 1214 -16 Q 841 59 441 206 L 441 856 Q 825 641 1194 531 Q 1563 422 1919 422 Q 2459 422 2753 634 Q 3047 847 3047 1241 Q 3047 1584 2836 1778 Q 2625 1972 2144 2069 L 1759 2144 Q 1053 2284 737 2584 Q 422 2884 422 3419 Q 422 4038 858 4394 Q 1294 4750 2059 4750 Q 2388 4750 2728 4690 Q 3069 4631 3425 4513 z" transform="scale(0.015625)"/><path id="DejaVuSans-70" d="M 1159 525 L 1159 -1331 L 581 -1331 L 581 3500 L 1159 3500 L 1159 2969 Q 1341 3281 1617 3432 Q 1894 3584 2278 3584 Q 2916 3584 3314 3078 Q 3713 2572 3713 1747 Q 3713 922 3314 415 Q 2916 -91 2278 -91 Q 1894 -91 1617 61 Q 1341 213 1159 525 z M 3116 1747 Q 3116 2381 2855 2742 Q 2594 3103 2138 3103 Q 1681 3103 1420 2742 Q 1159 2381 1159 1747 Q 1159 1113 1420 752 Q 1681 391 2138 391 Q 2594 391 2855 752 Q 3116 1113 3116 1747 z" transform="scale(0.015625)"/><path id="DejaVuSans-54" d="M -19 4666 L 3928 4666 L 3928 4134 L 2272 4134 L 2272 0 L 1638 0 L 1638 4134 L -19 4134 L -19 4666 z" transform="scale(0.015625)"/><path id="DejaVuSans-5b" d="M 550 4863 L 1875 4863 L 1875 4416 L 1125 4416 L 1125 -397 L 1875 -397 L 1875 -844 L 550 -844 L 550 4863 z" transform="scale(0.015625)"/><path id="DejaVuSans-5d" d="M 1947 4863 L 1947 -844 L 622 -844 L 622 -397 L 1369 -397 L 1369 4416 L 622 4416 L 622 4863 L 1947 4863 z" transform="scale(0.015625)"/><path id="DejaVuSans-2f" d="M 1625 4666 L 2156 4666 L 531 -594 L 0 -594 L 1625 4666 z" transform="scale(0.015625)"/></defs><use xlink:href="#DejaVuSans-53"/><use x="63.477" xlink:href="#DejaVuSans-70"/><use x="126.953" xlink:href="#DejaVuSans-65"/><use x="188.477" xlink:href="#DejaVuSans-65"/><use x="250" xlink:href="#DejaVuSans-64"/><use x="313.477" xlink:href="#DejaVuSans-75"/><use x="376.855" xlink:href="#DejaVuSans-70"/><use x="440.332" xlink:href="#DejaVuSans-20"/><use x="472.119" xlink:href="#DejaVuSans-32"/><use x="535.742" xlink:href="#DejaVuSans-54"/><use x="596.826" xlink:href="#DejaVuSans-5b"/><use x="635.84" xlink:href="#DejaVuSans-32"/><use x="699.463" xlink:href="#DejaVuSans-5d"/><use x="738.477" xlink:href="#DejaVuSans-2f"/><use x="772.168" xlink:href="#DejaVuSans-54"/><use x="833.252" xlink:href="#DejaVuSans-5b"/><use x="872.266" xlink:href="#DejaVuSans-6e"/><use x="935.645" xlink:href="#DejaVuSans-5d"/></g></g></g><g id="line2d_15"><path d="M 73.832727 293.27287 L 78.985974 289.477518 L 84.139221 286.087713 L 89.292468 282.371454 L 94.445714 278.525065 L 99.598961 275.827004 L 104.752208 272.667799 L 109.905455 270.104761 L 115.058701 268.129774 L 120.211948 264.199779 L 125.365195 262.583497 L 130.518442 260.013767 L 135.671688 258.122925 L 140.824935 258.287896 L 145.978182 257.353274 L 151.131429 256.96785 L 156.284675 256.23636 L 161.437922 255.818776 L 166.591169 255.323395 L 171.744416 254.90299 L 176.897662 254.531828 L 182.050909 254.243496 L 187.204156 254.040423 L 192.357403 253.766278 L 197.510649 253.517699 L 202.663896 253.185122 L 207.817143 253.032984 L 212.97039 252.748264 L 218.123636 252.379583 L 223.276883 252.015187 L 228.43013 251.456829 L 233.583377 251.116572 L 238.736623 250.403396 L 243.88987 249.787455 L 249.043117 249.199346 L 254.196364 248.842209 L 259.34961 248.390161 L 264.502857 247.902143 L 269.656104 247.488838 L 274.809351 246.986864 L 279.962597 246.75346 L 285.115844 246.36319 L 290.269091 246.073084 L 295.422338 246.00792 L 300.575584 245.637772 L 305.728831 245.673438 L 310.882078 245.248429 L 316.035325 245.271974 L 321.188571 245.144454 L 326.341818 245.015808 L 331.495065 244.906531 L 336.648312 244.48051 L 341.801558 244.453331 L 346.954805 244.378889 L 352.108052 244.391988 L 357.261299 244.19721 L 362.414545 244.205712 L 367.567792 244.268042 L 372.721039 244.201104 L 377.874286 244.144828 L 383.027532 244.048305 L 388.180779 243.958288 L 393.334026 244.096411 L 398.487273 244.002794" clip-path="url(#p5a74cd782c)" style="fill:none;stroke-dasharray:5.55,2.4;stroke-dashoffset:0;stroke:#1f77b4;stroke-width:1.5"/><defs><path id="mceaf55a5a3" d="M -3 0 L 3 0 M 0 3 L 0 -3" style="stroke:#1f77b4"/></defs><g clip-path="url(#p5a74cd782c)"><use x="73.833" y="293.273" xlink:href="#mceaf55a5a3" style="fill:#1f77b4;stroke:#1f77b4"/><use x="78.986" y="289.478" xlink:href="#mceaf55a5a3" style="fill:#1f77b4;stroke:#1f77b4"/><use x="84.139" y="286.088" xlink:href="#mceaf55a5a3" style="fill:#1f77b4;stroke:#1f77b4"/><use x="89.292" y="282.371" xlink:href="#mceaf55a5a3" style="fill:#1f77b4;stroke:#1f77b4"/><use x="94.446" y="278.525" xlink:href="#mceaf55a5a3" style="fill:#1f77b4;stroke:#1f77b4"/><use x="99.599" y="275.827" xlink:href="#mceaf55a5a3" style="fill:#1f77b4;stroke:#1f77b4"/><use x="104.752" y="272.668" xlink:href="#mceaf55a5a3" style="fill:#1f77b4;stroke:#1f77b4"/><use x="109.905" y="270.105" xlink:href="#mceaf55a5a3" style="fill:#1f77b4;stroke:#1f77b4"/><use x="115.059" y="268.13" xlink:href="#mceaf55a5a3" style="fill:#1f77b4;stroke:#1f77b4"/><use x="120.212" y="264.2" xlink:href="#mceaf55a5a3" style="fill:#1f77b4;stroke:#1f77b4"/><use x="125.365" y="262.583" xlink:href="#mceaf55a5a3" style="fill:#1f77b4;stroke:#1f77b4"/><use x="130.518" y="260.014" xlink:href="#mceaf55a5a3" style="fill:#1f77b4;stroke:#1f77b4"/><use x="135.672" y="258.123" xlink:href="#mceaf55a5a3" style="fill:#1f77b4;stroke:#1f77b4"/><use x="140.825" y="258.288" xlink:href="#mceaf55a5a3" style="fill:#1f77b4;stroke:#1f77b4"/><use x="145.978" y="257.353" xlink:href="#mceaf55a5a3" style="fill:#1f77b4;stroke:#1f77b4"/><use x="151.131" y="256.968" xlink:href="#mceaf55a5a3" style="fill:#1f77b4;stroke:#1f77b4"/><use x="156.285" y="256.236" xlink:href="#mceaf55a5a3" style="fill:#1f77b4;stroke:#1f77b4"/><use x="161.438" y="255.819" xlink:href="#mceaf55a5a3" style="fill:#1f77b4;stroke:#1f77b4"/><use x="166.591" y="255.323" xlink:href="#mceaf55a5a3" style="fill:#1f77b4;stroke:#1f77b4"/><use x="171.744" y="254.903" xlink:href="#mceaf55a5a3" style="fill:#1f77b4;stroke:#1f77b4"/><use x="176.898" y="254.532" xlink:href="#mceaf55a5a3" style="fill:#1f77b4;stroke:#1f77b4"/><use x="182.051" y="254.243" xlink:href="#mceaf55a5a3" style="fill:#1f77b4;stroke:#1f77b4"/><use x="187.204" y="254.04" xlink:href="#mceaf55a5a3" style="fill:#1f77b4;stroke:#1f77b4"/><use x="192.357" y="253.766" xlink:href="#mceaf55a5a3" style="fill:#1f77b4;stroke:#1f77b4"/><use x="197.511" y="253.518" xlink:href="#mceaf55a5a3" style="fill:#1f77b4;stroke:#1f77b4"/><use x="202.664" y="253.185" xlink:href="#mceaf55a5a3" style="fill:#1f77b4;stroke:#1f77b4"/><use x="207.817" y="253.033" xlink:href="#mceaf55a5a3" style="fill:#1f77b4;stroke:#1f77b4"/><use x="212.97" y="252.748" xlink:href="#mceaf55a5a3" style="fill:#1f77b4;stroke:#1f77b4"/><use x="218.124" y="252.38" xlink:href="#mceaf55a5a3" style="fill:#1f77b4;stroke:#1f77b4"/><use x="223.277" y="252.015" xlink:href="#mceaf55a5a3" style="fill:#1f77b4;stroke:#1f77b4"/><use x="228.43" y="251.457" xlink:href="#mceaf55a5a3" style="fill:#1f77b4;stroke:#1f77b4"/><use x="233.583" y="251.117" xlink:href="#mceaf55a5a3" style="fill:#1f77b4;stroke:#1f77b4"/><use x="238.737" y="250.403" xlink:href="#mceaf55a5a3" style="fill:#1f77b4;stroke:#1f77b4"/><use x="243.89" y="249.787" xlink:href="#mceaf55a5a3" style="fill:#1f77b4;stroke:#1f77b4"/><use x="249.043" y="249.199" xlink:href="#mceaf55a5a3" style="fill:#1f77b4;stroke:#1f77b4"/><use x="254.196" y="248.842" xlink:href="#mceaf55a5a3" style="fill:#1f77b4;stroke:#1f77b4"/><use x="259.35" y="248.39" xlink:href="#mceaf55a5a3" style="fill:#1f77b4;stroke:#1f77b4"/><use x="264.503" y="247.902" xlink:href="#mceaf55a5a3" style="fill:#1f77b4;stroke:#1f77b4"/><use x="269.656" y="247.489" xlink:href="#mceaf55a5a3" style="fill:#1f77b4;stroke:#1f77b4"/><use x="274.809" y="246.987" xlink:href="#mceaf55a5a3" style="fill:#1f77b4;stroke:#1f77b4"/><use x="279.963" y="246.753" xlink:href="#mceaf55a5a3" style="fill:#1f77b4;stroke:#1f77b4"/><use x="285.116" y="246.363" xlink:href="#mceaf55a5a3" style="fill:#1f77b4;stroke:#1f77b4"/><use x="290.269" y="246.073" xlink:href="#mceaf55a5a3" style="fill:#1f77b4;stroke:#1f77b4"/><use x="295.422" y="246.008" xlink:href="#mceaf55a5a3" style="fill:#1f77b4;stroke:#1f77b4"/><use x="300.576" y="245.638" xlink:href="#mceaf55a5a3" style="fill:#1f77b4;stroke:#1f77b4"/><use x="305.729" y="245.673" xlink:href="#mceaf55a5a3" style="fill:#1f77b4;stroke:#1f77b4"/><use x="310.882" y="245.248" xlink:href="#mceaf55a5a3" style="fill:#1f77b4;stroke:#1f77b4"/><use x="316.035" y="245.272" xlink:href="#mceaf55a5a3" style="fill:#1f77b4;stroke:#1f77b4"/><use x="321.189" y="245.144" xlink:href="#mceaf55a5a3" style="fill:#1f77b4;stroke:#1f77b4"/><use x="326.342" y="245.016" xlink:href="#mceaf55a5a3" style="fill:#1f77b4;stroke:#1f77b4"/><use x="331.495" y="244.907" xlink:href="#mceaf55a5a3" style="fill:#1f77b4;stroke:#1f77b4"/><use x="336.648" y="244.481" xlink:href="#mceaf55a5a3" style="fill:#1f77b4;stroke:#1f77b4"/><use x="341.802" y="244.453" xlink:href="#mceaf55a5a3" style="fill:#1f77b4;stroke:#1f77b4"/><use x="346.955" y="244.379" xlink:href="#mceaf55a5a3" style="fill:#1f77b4;stroke:#1f77b4"/><use x="352.108" y="244.392" xlink:href="#mceaf55a5a3" style="fill:#1f77b4;stroke:#1f77b4"/><use x="357.261" y="244.197" xlink:href="#mceaf55a5a3" style="fill:#1f77b4;stroke:#1f77b4"/><use x="362.415" y="244.206" xlink:href="#mceaf55a5a3" style="fill:#1f77b4;stroke:#1f77b4"/><use x="367.568" y="244.268" xlink:href="#mceaf55a5a3" style="fill:#1f77b4;stroke:#1f77b4"/><use x="372.721" y="244.201" xlink:href="#mceaf55a5a3" style="fill:#1f77b4;stroke:#1f77b4"/><use x="377.874" y="244.145" xlink:href="#mceaf55a5a3" style="fill:#1f77b4;stroke:#1f77b4"/><use x="383.028" y="244.048" xlink:href="#mceaf55a5a3" style="fill:#1f77b4;stroke:#1f77b4"/><use x="388.181" y="243.958" xlink:href="#mceaf55a5a3" style="fill:#1f77b4;stroke:#1f77b4"/><use x="393.334" y="244.096" xlink:href="#mceaf55a5a3" style="fill:#1f77b4;stroke:#1f77b4"/><use x="398.487" y="244.003" xlink:href="#mceaf55a5a3" style="fill:#1f77b4;stroke:#1f77b4"/></g></g><g id="line2d_16"><path d="M 73.832727 293.437072 L 78.985974 289.477518 L 84.139221 285.624729 L 89.292468 281.706896 L 94.445714 277.861482 L 99.598961 273.977115 L 104.752208 270.09338 L 109.905455 266.179021 L 115.058701 262.318766 L 120.211948 258.417173 L 125.365195 254.494778 L 130.518442 250.711281 L 135.671688 246.828008 L 140.824935 242.907108 L 145.978182 239.23748 L 151.131429 235.5059 L 156.284675 231.593286 L 161.437922 227.735668 L 166.591169 223.998177 L 171.744416 220.224696 L 176.897662 216.190303 L 182.050909 212.577288 L 187.204156 208.624209 L 192.357403 204.847431 L 197.510649 201.146412 L 202.663896 197.346941 L 207.817143 193.417327 L 212.97039 189.514435 L 218.123636 185.799216 L 223.276883 182.235748 L 228.43013 178.275252 L 233.583377 174.482404 L 238.736623 170.44561 L 243.88987 166.887111 L 249.043117 162.703275 L 254.196364 159.354891 L 259.34961 155.334369 L 264.502857 151.422679 L 269.656104 147.720816 L 274.809351 144.047838 L 279.962597 140.453399 L 285.115844 136.621745 L 290.269091 132.682446 L 295.422338 128.717922 L 300.575584 125.059997 L 305.728831 121.406034 L 310.882078 117.320935 L 316.035325 113.639444 L 321.188571 109.75112 L 326.341818 105.945606 L 331.495065 102.608374 L 336.648312 98.531779 L 341.801558 94.86832 L 346.954805 90.682096 L 352.108052 87.26007 L 357.261299 83.787636 L 362.414545 79.731054 L 367.567792 75.965386 L 372.721039 72.070847 L 377.874286 68.878935 L 383.027532 64.660115 L 388.180779 61.176346 L 393.334026 57.424049 L 398.487273 53.568" clip-path="url(#p5a74cd782c)" style="fill:none;stroke-dasharray:5.55,2.4;stroke-dashoffset:0;stroke:#ff7f0e;stroke-width:1.5"/><defs><path id="m0e1195dce3" d="M -3 0 L 3 0 M 0 3 L 0 -3" style="stroke:#ff7f0e"/></defs><g clip-path="url(#p5a74cd782c)"><use x="73.833" y="293.437" xlink:href="#m0e1195dce3" style="fill:#ff7f0e;stroke:#ff7f0e"/><use x="78.986" y="289.478" xlink:href="#m0e1195dce3" style="fill:#ff7f0e;stroke:#ff7f0e"/><use x="84.139" y="285.625" xlink:href="#m0e1195dce3" style="fill:#ff7f0e;stroke:#ff7f0e"/><use x="89.292" y="281.707" xlink:href="#m0e1195dce3" style="fill:#ff7f0e;stroke:#ff7f0e"/><use x="94.446" y="277.861" xlink:href="#m0e1195dce3" style="fill:#ff7f0e;stroke:#ff7f0e"/><use x="99.599" y="273.977" xlink:href="#m0e1195dce3" style="fill:#ff7f0e;stroke:#ff7f0e"/><use x="104.752" y="270.093" xlink:href="#m0e1195dce3" style="fill:#ff7f0e;stroke:#ff7f0e"/><use x="109.905" y="266.179" xlink:href="#m0e1195dce3" style="fill:#ff7f0e;stroke:#ff7f0e"/><use x="115.059" y="262.319" xlink:href="#m0e1195dce3" style="fill:#ff7f0e;stroke:#ff7f0e"/><use x="120.212" y="258.417" xlink:href="#m0e1195dce3" style="fill:#ff7f0e;stroke:#ff7f0e"/><use x="125.365" y="254.495" xlink:href="#m0e1195dce3" style="fill:#ff7f0e;stroke:#ff7f0e"/><use x="130.518" y="250.711" xlink:href="#m0e1195dce3" style="fill:#ff7f0e;stroke:#ff7f0e"/><use x="135.672" y="246.828" xlink:href="#m0e1195dce3" style="fill:#ff7f0e;stroke:#ff7f0e"/><use x="140.825" y="242.907" xlink:href="#m0e1195dce3" style="fill:#ff7f0e;stroke:#ff7f0e"/><use x="145.978" y="239.237" xlink:href="#m0e1195dce3" style="fill:#ff7f0e;stroke:#ff7f0e"/><use x="151.131" y="235.506" xlink:href="#m0e1195dce3" style="fill:#ff7f0e;stroke:#ff7f0e"/><use x="156.285" y="231.593" xlink:href="#m0e1195dce3" style="fill:#ff7f0e;stroke:#ff7f0e"/><use x="161.438" y="227.736" xlink:href="#m0e1195dce3" style="fill:#ff7f0e;stroke:#ff7f0e"/><use x="166.591" y="223.998" xlink:href="#m0e1195dce3" style="fill:#ff7f0e;stroke:#ff7f0e"/><use x="171.744" y="220.225" xlink:href="#m0e1195dce3" style="fill:#ff7f0e;stroke:#ff7f0e"/><use x="176.898" y="216.19" xlink:href="#m0e1195dce3" style="fill:#ff7f0e;stroke:#ff7f0e"/><use x="182.051" y="212.577" xlink:href="#m0e1195dce3" style="fill:#ff7f0e;stroke:#ff7f0e"/><use x="187.204" y="208.624" xlink:href="#m0e1195dce3" style="fill:#ff7f0e;stroke:#ff7f0e"/><use x="192.357" y="204.847" xlink:href="#m0e1195dce3" style="fill:#ff7f0e;stroke:#ff7f0e"/><use x="197.511" y="201.146" xlink:href="#m0e1195dce3" style="fill:#ff7f0e;stroke:#ff7f0e"/><use x="202.664" y="197.347" xlink:href="#m0e1195dce3" style="fill:#ff7f0e;stroke:#ff7f0e"/><use x="207.817" y="193.417" xlink:href="#m0e1195dce3" style="fill:#ff7f0e;stroke:#ff7f0e"/><use x="212.97" y="189.514" xlink:href="#m0e1195dce3" style="fill:#ff7f0e;stroke:#ff7f0e"/><use x="218.124" y="185.799" xlink:href="#m0e1195dce3" style="fill:#ff7f0e;stroke:#ff7f0e"/><use x="223.277" y="182.236" xlink:href="#m0e1195dce3" style="fill:#ff7f0e;stroke:#ff7f0e"/><use x="228.43" y="178.275" xlink:href="#m0e1195dce3" style="fill:#ff7f0e;stroke:#ff7f0e"/><use x="233.583" y="174.482" xlink:href="#m0e1195dce3" style="fill:#ff7f0e;stroke:#ff7f0e"/><use x="238.737" y="170.446" xlink:href="#m0e1195dce3" style="fill:#ff7f0e;stroke:#ff7f0e"/><use x="243.89" y="166.887" xlink:href="#m0e1195dce3" style="fill:#ff7f0e;stroke:#ff7f0e"/><use x="249.043" y="162.703" xlink:href="#m0e1195dce3" style="fill:#ff7f0e;stroke:#ff7f0e"/><use x="254.196" y="159.355" xlink:href="#m0e1195dce3" style="fill:#ff7f0e;stroke:#ff7f0e"/><use x="259.35" y="155.334" xlink:href="#m0e1195dce3" style="fill:#ff7f0e;stroke:#ff7f0e"/><use x="264.503" y="151.423" xlink:href="#m0e1195dce3" style="fill:#ff7f0e;stroke:#ff7f0e"/><use x="269.656" y="147.721" xlink:href="#m0e1195dce3" style="fill:#ff7f0e;stroke:#ff7f0e"/><use x="274.809" y="144.048" xlink:href="#m0e1195dce3" style="fill:#ff7f0e;stroke:#ff7f0e"/><use x="279.963" y="140.453" xlink:href="#m0e1195dce3" style="fill:#ff7f0e;stroke:#ff7f0e"/><use x="285.116" y="136.622" xlink:href="#m0e1195dce3" style="fill:#ff7f0e;stroke:#ff7f0e"/><use x="290.269" y="132.682" xlink:href="#m0e1195dce3" style="fill:#ff7f0e;stroke:#ff7f0e"/><use x="295.422" y="128.718" xlink:href="#m0e1195dce3" style="fill:#ff7f0e;stroke:#ff7f0e"/><use x="300.576" y="125.06" xlink:href="#m0e1195dce3" style="fill:#ff7f0e;stroke:#ff7f0e"/><use x="305.729" y="121.406" xlink:href="#m0e1195dce3" style="fill:#ff7f0e;stroke:#ff7f0e"/><use x="310.882" y="117.321" xlink:href="#m0e1195dce3" style="fill:#ff7f0e;stroke:#ff7f0e"/><use x="316.035" y="113.639" xlink:href="#m0e1195dce3" style="fill:#ff7f0e;stroke:#ff7f0e"/><use x="321.189" y="109.751" xlink:href="#m0e1195dce3" style="fill:#ff7f0e;stroke:#ff7f0e"/><use x="326.342" y="105.946" xlink:href="#m0e1195dce3" style="fill:#ff7f0e;stroke:#ff7f0e"/><use x="331.495" y="102.608" xlink:href="#m0e1195dce3" style="fill:#ff7f0e;stroke:#ff7f0e"/><use x="336.648" y="98.532" xlink:href="#m0e1195dce3" style="fill:#ff7f0e;stroke:#ff7f0e"/><use x="341.802" y="94.868" xlink:href="#m0e1195dce3" style="fill:#ff7f0e;stroke:#ff7f0e"/><use x="346.955" y="90.682" xlink:href="#m0e1195dce3" style="fill:#ff7f0e;stroke:#ff7f0e"/><use x="352.108" y="87.26" xlink:href="#m0e1195dce3" style="fill:#ff7f0e;stroke:#ff7f0e"/><use x="357.261" y="83.788" xlink:href="#m0e1195dce3" style="fill:#ff7f0e;stroke:#ff7f0e"/><use x="362.415" y="79.731" xlink:href="#m0e1195dce3" style="fill:#ff7f0e;stroke:#ff7f0e"/><use x="367.568" y="75.965" xlink:href="#m0e1195dce3" style="fill:#ff7f0e;stroke:#ff7f0e"/><use x="372.721" y="72.071" xlink:href="#m0e1195dce3" style="fill:#ff7f0e;stroke:#ff7f0e"/><use x="377.874" y="68.879" xlink:href="#m0e1195dce3" style="fill:#ff7f0e;stroke:#ff7f0e"/><use x="383.028" y="64.66" xlink:href="#m0e1195dce3" style="fill:#ff7f0e;stroke:#ff7f0e"/><use x="388.181" y="61.176" xlink:href="#m0e1195dce3" style="fill:#ff7f0e;stroke:#ff7f0e"/><use x="393.334" y="57.424" xlink:href="#m0e1195dce3" style="fill:#ff7f0e;stroke:#ff7f0e"/><use x="398.487" y="53.568" xlink:href="#m0e1195dce3" style="fill:#ff7f0e;stroke:#ff7f0e"/></g></g><g id="line2d_17"><path d="M 73.832727 295.163053 L 78.985974 289.477518 L 84.139221 285.694342 L 89.292468 282.499853 L 94.445714 278.345899 L 99.598961 275.117287 L 104.752208 271.680344 L 109.905455 267.030781 L 115.058701 264.169194 L 120.211948 259.503339 L 125.365195 258.637758 L 130.518442 253.375598 L 135.671688 249.682783 L 140.824935 246.202706 L 145.978182 243.38179 L 151.131429 239.648485 L 156.284675 235.321486 L 161.437922 232.159211 L 166.591169 230.004253 L 171.744416 225.121216 L 176.897662 221.981075 L 182.050909 219.36084 L 187.204156 216.331449 L 192.357403 212.97513 L 197.510649 208.220517 L 202.663896 204.906758 L 207.817143 202.526224 L 212.97039 197.844482 L 218.123636 197.414846 L 223.276883 193.058851 L 228.43013 188.892169 L 233.583377 188.626542 L 238.736623 183.025747 L 243.88987 178.763959 L 249.043117 175.615116 L 254.196364 174.133494 L 259.34961 171.776752 L 264.502857 167.478152 L 269.656104 163.626721 L 274.809351 160.520142 L 279.962597 159.371666 L 285.115844 154.407445 L 290.269091 151.37996 L 295.422338 149.528369 L 300.575584 143.475891 L 305.728831 140.915901 L 310.882078 140.183627 L 316.035325 135.950543 L 321.188571 133.602574 L 326.341818 128.51861 L 331.495065 128.163513 L 336.648312 126.716177 L 341.801558 122.614936 L 346.954805 118.115803 L 352.108052 115.996327 L 357.261299 111.798567 L 362.414545 107.380961 L 367.567792 106.309483 L 372.721039 102.102355 L 377.874286 100.788094 L 383.027532 98.725046 L 388.180779 94.606287 L 393.334026 92.508628 L 398.487273 87.497167" clip-path="url(#p5a74cd782c)" style="fill:none;stroke-dasharray:5.55,2.4;stroke-dashoffset:0;stroke:#2ca02c;stroke-width:1.5"/><defs><path id="m175e05f007" d="M -3 0 L 3 0 M 0 3 L 0 -3" style="stroke:#2ca02c"/></defs><g clip-path="url(#p5a74cd782c)"><use x="73.833" y="295.163" xlink:href="#m175e05f007" style="fill:#2ca02c;stroke:#2ca02c"/><use x="78.986" y="289.478" xlink:href="#m175e05f007" style="fill:#2ca02c;stroke:#2ca02c"/><use x="84.139" y="285.694" xlink:href="#m175e05f007" style="fill:#2ca02c;stroke:#2ca02c"/><use x="89.292" y="282.5" xlink:href="#m175e05f007" style="fill:#2ca02c;stroke:#2ca02c"/><use x="94.446" y="278.346" xlink:href="#m175e05f007" style="fill:#2ca02c;stroke:#2ca02c"/><use x="99.599" y="275.117" xlink:href="#m175e05f007" style="fill:#2ca02c;stroke:#2ca02c"/><use x="104.752" y="271.68" xlink:href="#m175e05f007" style="fill:#2ca02c;stroke:#2ca02c"/><use x="109.905" y="267.031" xlink:href="#m175e05f007" style="fill:#2ca02c;stroke:#2ca02c"/><use x="115.059" y="264.169" xlink:href="#m175e05f007" style="fill:#2ca02c;stroke:#2ca02c"/><use x="120.212" y="259.503" xlink:href="#m175e05f007" style="fill:#2ca02c;stroke:#2ca02c"/><use x="125.365" y="258.638" xlink:href="#m175e05f007" style="fill:#2ca02c;stroke:#2ca02c"/><use x="130.518" y="253.376" xlink:href="#m175e05f007" style="fill:#2ca02c;stroke:#2ca02c"/><use x="135.672" y="249.683" xlink:href="#m175e05f007" style="fill:#2ca02c;stroke:#2ca02c"/><use x="140.825" y="246.203" xlink:href="#m175e05f007" style="fill:#2ca02c;stroke:#2ca02c"/><use x="145.978" y="243.382" xlink:href="#m175e05f007" style="fill:#2ca02c;stroke:#2ca02c"/><use x="151.131" y="239.648" xlink:href="#m175e05f007" style="fill:#2ca02c;stroke:#2ca02c"/><use x="156.285" y="235.321" xlink:href="#m175e05f007" style="fill:#2ca02c;stroke:#2ca02c"/><use x="161.438" y="232.159" xlink:href="#m175e05f007" style="fill:#2ca02c;stroke:#2ca02c"/><use x="166.591" y="230.004" xlink:href="#m175e05f007" style="fill:#2ca02c;stroke:#2ca02c"/><use x="171.744" y="225.121" xlink:href="#m175e05f007" style="fill:#2ca02c;stroke:#2ca02c"/><use x="176.898" y="221.981" xlink:href="#m175e05f007" style="fill:#2ca02c;stroke:#2ca02c"/><use x="182.051" y="219.361" xlink:href="#m175e05f007" style="fill:#2ca02c;stroke:#2ca02c"/><use x="187.204" y="216.331" xlink:href="#m175e05f007" style="fill:#2ca02c;stroke:#2ca02c"/><use x="192.357" y="212.975" xlink:href="#m175e05f007" style="fill:#2ca02c;stroke:#2ca02c"/><use x="197.511" y="208.221" xlink:href="#m175e05f007" style="fill:#2ca02c;stroke:#2ca02c"/><use x="202.664" y="204.907" xlink:href="#m175e05f007" style="fill:#2ca02c;stroke:#2ca02c"/><use x="207.817" y="202.526" xlink:href="#m175e05f007" style="fill:#2ca02c;stroke:#2ca02c"/><use x="212.97" y="197.844" xlink:href="#m175e05f007" style="fill:#2ca02c;stroke:#2ca02c"/><use x="218.124" y="197.415" xlink:href="#m175e05f007" style="fill:#2ca02c;stroke:#2ca02c"/><use x="223.277" y="193.059" xlink:href="#m175e05f007" style="fill:#2ca02c;stroke:#2ca02c"/><use x="228.43" y="188.892" xlink:href="#m175e05f007" style="fill:#2ca02c;stroke:#2ca02c"/><use x="233.583" y="188.627" xlink:href="#m175e05f007" style="fill:#2ca02c;stroke:#2ca02c"/><use x="238.737" y="183.026" xlink:href="#m175e05f007" style="fill:#2ca02c;stroke:#2ca02c"/><use x="243.89" y="178.764" xlink:href="#m175e05f007" style="fill:#2ca02c;stroke:#2ca02c"/><use x="249.043" y="175.615" xlink:href="#m175e05f007" style="fill:#2ca02c;stroke:#2ca02c"/><use x="254.196" y="174.133" xlink:href="#m175e05f007" style="fill:#2ca02c;stroke:#2ca02c"/><use x="259.35" y="171.777" xlink:href="#m175e05f007" style="fill:#2ca02c;stroke:#2ca02c"/><use x="264.503" y="167.478" xlink:href="#m175e05f007" style="fill:#2ca02c;stroke:#2ca02c"/><use x="269.656" y="163.627" xlink:href="#m175e05f007" style="fill:#2ca02c;stroke:#2ca02c"/><use x="274.809" y="160.52" xlink:href="#m175e05f007" style="fill:#2ca02c;stroke:#2ca02c"/><use x="279.963" y="159.372" xlink:href="#m175e05f007" style="fill:#2ca02c;stroke:#2ca02c"/><use x="285.116" y="154.407" xlink:href="#m175e05f007" style="fill:#2ca02c;stroke:#2ca02c"/><use x="290.269" y="151.38" xlink:href="#m175e05f007" style="fill:#2ca02c;stroke:#2ca02c"/><use x="295.422" y="149.528" xlink:href="#m175e05f007" style="fill:#2ca02c;stroke:#2ca02c"/><use x="300.576" y="143.476" xlink:href="#m175e05f007" style="fill:#2ca02c;stroke:#2ca02c"/><use x="305.729" y="140.916" xlink:href="#m175e05f007" style="fill:#2ca02c;stroke:#2ca02c"/><use x="310.882" y="140.184" xlink:href="#m175e05f007" style="fill:#2ca02c;stroke:#2ca02c"/><use x="316.035" y="135.951" xlink:href="#m175e05f007" style="fill:#2ca02c;stroke:#2ca02c"/><use x="321.189" y="133.603" xlink:href="#m175e05f007" style="fill:#2ca02c;stroke:#2ca02c"/><use x="326.342" y="128.519" xlink:href="#m175e05f007" style="fill:#2ca02c;stroke:#2ca02c"/><use x="331.495" y="128.164" xlink:href="#m175e05f007" style="fill:#2ca02c;stroke:#2ca02c"/><use x="336.648" y="126.716" xlink:href="#m175e05f007" style="fill:#2ca02c;stroke:#2ca02c"/><use x="341.802" y="122.615" xlink:href="#m175e05f007" style="fill:#2ca02c;stroke:#2ca02c"/><use x="346.955" y="118.116" xlink:href="#m175e05f007" style="fill:#2ca02c;stroke:#2ca02c"/><use x="352.108" y="115.996" xlink:href="#m175e05f007" style="fill:#2ca02c;stroke:#2ca02c"/><use x="357.261" y="111.799" xlink:href="#m175e05f007" style="fill:#2ca02c;stroke:#2ca02c"/><use x="362.415" y="107.381" xlink:href="#m175e05f007" style="fill:#2ca02c;stroke:#2ca02c"/><use x="367.568" y="106.309" xlink:href="#m175e05f007" style="fill:#2ca02c;stroke:#2ca02c"/><use x="372.721" y="102.102" xlink:href="#m175e05f007" style="fill:#2ca02c;stroke:#2ca02c"/><use x="377.874" y="100.788" xlink:href="#m175e05f007" style="fill:#2ca02c;stroke:#2ca02c"/><use x="383.028" y="98.725" xlink:href="#m175e05f007" style="fill:#2ca02c;stroke:#2ca02c"/><use x="388.181" y="94.606" xlink:href="#m175e05f007" style="fill:#2ca02c;stroke:#2ca02c"/><use x="393.334" y="92.509" xlink:href="#m175e05f007" style="fill:#2ca02c;stroke:#2ca02c"/><use x="398.487" y="87.497" xlink:href="#m175e05f007" style="fill:#2ca02c;stroke:#2ca02c"/></g></g><g id="line2d_18"><path d="M 73.832727 295.488 L 78.985974 289.477518 L 84.139221 285.826262 L 89.292468 282.062709 L 94.445714 278.171769 L 99.598961 275.105522 L 104.752208 271.272263 L 109.905455 267.329312 L 115.058701 263.044544 L 120.211948 259.577806 L 125.365195 256.167678 L 130.518442 252.384138 L 135.671688 248.502192 L 140.824935 245.238109 L 145.978182 241.544308 L 151.131429 236.694553 L 156.284675 233.368923 L 161.437922 229.22859 L 166.591169 225.804332 L 171.744416 223.081191 L 176.897662 218.187392 L 182.050909 214.72707 L 187.204156 210.808324 L 192.357403 208.769464 L 197.510649 203.662091 L 202.663896 200.588645 L 207.817143 196.797483 L 212.97039 192.902525 L 218.123636 188.913477 L 223.276883 185.17241 L 228.43013 181.746991 L 233.583377 177.73279 L 238.736623 174.763381 L 243.88987 170.649736 L 249.043117 167.372476 L 254.196364 163.85844 L 259.34961 159.87799 L 264.502857 157.209675 L 269.656104 151.871796 L 274.809351 148.87754 L 279.962597 144.414547 L 285.115844 142.572876 L 290.269091 137.871983 L 295.422338 134.276768 L 300.575584 131.119289 L 305.728831 127.062521 L 310.882078 123.253126 L 316.035325 120.518827 L 321.188571 116.942062 L 326.341818 113.252768 L 331.495065 108.868285 L 336.648312 104.900243 L 341.801558 101.804144 L 346.954805 98.720018 L 352.108052 94.435167 L 357.261299 91.518395 L 362.414545 87.574649 L 367.567792 84.235195 L 372.721039 80.120845 L 377.874286 77.671482 L 383.027532 73.331481 L 388.180779 69.94263 L 393.334026 65.908148 L 398.487273 63.283687" clip-path="url(#p5a74cd782c)" style="fill:none;stroke-dasharray:5.55,2.4;stroke-dashoffset:0;stroke:#d62728;stroke-width:1.5"/><defs><path id="m33200a2255" d="M -3 0 L 3 0 M 0 3 L 0 -3" style="stroke:#d62728"/></defs><g clip-path="url(#p5a74cd782c)"><use x="73.833" y="295.488" xlink:href="#m33200a2255" style="fill:#d62728;stroke:#d62728"/><use x="78.986" y="289.478" xlink:href="#m33200a2255" style="fill:#d62728;stroke:#d62728"/><use x="84.139" y="285.826" xlink:href="#m33200a2255" style="fill:#d62728;stroke:#d62728"/><use x="89.292" y="282.063" xlink:href="#m33200a2255" style="fill:#d62728;stroke:#d62728"/><use x="94.446" y="278.172" xlink:href="#m33200a2255" style="fill:#d62728;stroke:#d62728"/><use x="99.599" y="275.106" xlink:href="#m33200a2255" style="fill:#d62728;stroke:#d62728"/><use x="104.752" y="271.272" xlink:href="#m33200a2255" style="fill:#d62728;stroke:#d62728"/><use x="109.905" y="267.329" xlink:href="#m33200a2255" style="fill:#d62728;stroke:#d62728"/><use x="115.059" y="263.045" xlink:href="#m33200a2255" style="fill:#d62728;stroke:#d62728"/><use x="120.212" y="259.578" xlink:href="#m33200a2255" style="fill:#d62728;stroke:#d62728"/><use x="125.365" y="256.168" xlink:href="#m33200a2255" style="fill:#d62728;stroke:#d62728"/><use x="130.518" y="252.384" xlink:href="#m33200a2255" style="fill:#d62728;stroke:#d62728"/><use x="135.672" y="248.502" xlink:href="#m33200a2255" style="fill:#d62728;stroke:#d62728"/><use x="140.825" y="245.238" xlink:href="#m33200a2255" style="fill:#d62728;stroke:#d62728"/><use x="145.978" y="241.544" xlink:href="#m33200a2255" style="fill:#d62728;stroke:#d62728"/><use x="151.131" y="236.695" xlink:href="#m33200a2255" style="fill:#d62728;stroke:#d62728"/><use x="156.285" y="233.369" xlink:href="#m33200a2255" style="fill:#d62728;stroke:#d62728"/><use x="161.438" y="229.229" xlink:href="#m33200a2255" style="fill:#d62728;stroke:#d62728"/><use x="166.591" y="225.804" xlink:href="#m33200a2255" style="fill:#d62728;stroke:#d62728"/><use x="171.744" y="223.081" xlink:href="#m33200a2255" style="fill:#d62728;stroke:#d62728"/><use x="176.898" y="218.187" xlink:href="#m33200a2255" style="fill:#d62728;stroke:#d62728"/><use x="182.051" y="214.727" xlink:href="#m33200a2255" style="fill:#d62728;stroke:#d62728"/><use x="187.204" y="210.808" xlink:href="#m33200a2255" style="fill:#d62728;stroke:#d62728"/><use x="192.357" y="208.769" xlink:href="#m33200a2255" style="fill:#d62728;stroke:#d62728"/><use x="197.511" y="203.662" xlink:href="#m33200a2255" style="fill:#d62728;stroke:#d62728"/><use x="202.664" y="200.589" xlink:href="#m33200a2255" style="fill:#d62728;stroke:#d62728"/><use x="207.817" y="196.797" xlink:href="#m33200a2255" style="fill:#d62728;stroke:#d62728"/><use x="212.97" y="192.903" xlink:href="#m33200a2255" style="fill:#d62728;stroke:#d62728"/><use x="218.124" y="188.913" xlink:href="#m33200a2255" style="fill:#d62728;stroke:#d62728"/><use x="223.277" y="185.172" xlink:href="#m33200a2255" style="fill:#d62728;stroke:#d62728"/><use x="228.43" y="181.747" xlink:href="#m33200a2255" style="fill:#d62728;stroke:#d62728"/><use x="233.583" y="177.733" xlink:href="#m33200a2255" style="fill:#d62728;stroke:#d62728"/><use x="238.737" y="174.763" xlink:href="#m33200a2255" style="fill:#d62728;stroke:#d62728"/><use x="243.89" y="170.65" xlink:href="#m33200a2255" style="fill:#d62728;stroke:#d62728"/><use x="249.043" y="167.372" xlink:href="#m33200a2255" style="fill:#d62728;stroke:#d62728"/><use x="254.196" y="163.858" xlink:href="#m33200a2255" style="fill:#d62728;stroke:#d62728"/><use x="259.35" y="159.878" xlink:href="#m33200a2255" style="fill:#d62728;stroke:#d62728"/><use x="264.503" y="157.21" xlink:href="#m33200a2255" style="fill:#d62728;stroke:#d62728"/><use x="269.656" y="151.872" xlink:href="#m33200a2255" style="fill:#d62728;stroke:#d62728"/><use x="274.809" y="148.878" xlink:href="#m33200a2255" style="fill:#d62728;stroke:#d62728"/><use x="279.963" y="144.415" xlink:href="#m33200a2255" style="fill:#d62728;stroke:#d62728"/><use x="285.116" y="142.573" xlink:href="#m33200a2255" style="fill:#d62728;stroke:#d62728"/><use x="290.269" y="137.872" xlink:href="#m33200a2255" style="fill:#d62728;stroke:#d62728"/><use x="295.422" y="134.277" xlink:href="#m33200a2255" style="fill:#d62728;stroke:#d62728"/><use x="300.576" y="131.119" xlink:href="#m33200a2255" style="fill:#d62728;stroke:#d62728"/><use x="305.729" y="127.063" xlink:href="#m33200a2255" style="fill:#d62728;stroke:#d62728"/><use x="310.882" y="123.253" xlink:href="#m33200a2255" style="fill:#d62728;stroke:#d62728"/><use x="316.035" y="120.519" xlink:href="#m33200a2255" style="fill:#d62728;stroke:#d62728"/><use x="321.189" y="116.942" xlink:href="#m33200a2255" style="fill:#d62728;stroke:#d62728"/><use x="326.342" y="113.253" xlink:href="#m33200a2255" style="fill:#d62728;stroke:#d62728"/><use x="331.495" y="108.868" xlink:href="#m33200a2255" style="fill:#d62728;stroke:#d62728"/><use x="336.648" y="104.9" xlink:href="#m33200a2255" style="fill:#d62728;stroke:#d62728"/><use x="341.802" y="101.804" xlink:href="#m33200a2255" style="fill:#d62728;stroke:#d62728"/><use x="346.955" y="98.72" xlink:href="#m33200a2255" style="fill:#d62728;stroke:#d62728"/><use x="352.108" y="94.435" xlink:href="#m33200a2255" style="fill:#d62728;stroke:#d62728"/><use x="357.261" y="91.518" xlink:href="#m33200a2255" style="fill:#d62728;stroke:#d62728"/><use x="362.415" y="87.575" xlink:href="#m33200a2255" style="fill:#d62728;stroke:#d62728"/><use x="367.568" y="84.235" xlink:href="#m33200a2255" style="fill:#d62728;stroke:#d62728"/><use x="372.721" y="80.121" xlink:href="#m33200a2255" style="fill:#d62728;stroke:#d62728"/><use x="377.874" y="77.671" xlink:href="#m33200a2255" style="fill:#d62728;stroke:#d62728"/><use x="383.028" y="73.331" xlink:href="#m33200a2255" style="fill:#d62728;stroke:#d62728"/><use x="388.181" y="69.943" xlink:href="#m33200a2255" style="fill:#d62728;stroke:#d62728"/><use x="393.334" y="65.908" xlink:href="#m33200a2255" style="fill:#d62728;stroke:#d62728"/><use x="398.487" y="63.284" xlink:href="#m33200a2255" style="fill:#d62728;stroke:#d62728"/></g></g><g id="patch_3"><path d="M 57.6 307.584 L 57.6 41.472" style="fill:none;stroke:#000;stroke-width:.8;stroke-linejoin:miter;stroke-linecap:square"/></g><g id="patch_4"><path d="M 414.72 307.584 L 414.72 41.472" style="fill:none;stroke:#000;stroke-width:.8;stroke-linejoin:miter;stroke-linecap:square"/></g><g id="patch_5"><path d="M 57.6 307.584 L 414.72 307.584" style="fill:none;stroke:#000;stroke-width:.8;stroke-linejoin:miter;stroke-linecap:square"/></g><g id="patch_6"><path d="M 57.6 41.472 L 414.72 41.472" style="fill:none;stroke:#000;stroke-width:.8;stroke-linejoin:miter;stroke-linecap:square"/></g><g id="text_17"><g transform="translate(121.069688 35.472) scale(0.12 -0.12)"><defs><path id="DejaVuSans-41" d="M 2188 4044 L 1331 1722 L 3047 1722 L 2188 4044 z M 1831 4666 L 2547 4666 L 4325 0 L 3669 0 L 3244 1197 L 1141 1197 L 716 0 L 50 0 L 1831 4666 z" transform="scale(0.015625)"/><path id="DejaVuSans-57" d="M 213 4666 L 850 4666 L 1831 722 L 2809 4666 L 3519 4666 L 4500 722 L 5478 4666 L 6119 4666 L 4947 0 L 4153 0 L 3169 4050 L 2175 0 L 1381 0 L 213 4666 z" transform="scale(0.015625)"/><path id="DejaVuSans-47" d="M 3809 666 L 3809 1919 L 2778 1919 L 2778 2438 L 4434 2438 L 4434 434 Q 4069 175 3628 42 Q 3188 -91 2688 -91 Q 1594 -91 976 548 Q 359 1188 359 2328 Q 359 3472 976 4111 Q 1594 4750 2688 4750 Q 3144 4750 3555 4637 Q 3966 4525 4313 4306 L 4313 3634 Q 3963 3931 3569 4081 Q 3175 4231 2741 4231 Q 1884 4231 1454 3753 Q 1025 3275 1025 2328 Q 1025 1384 1454 906 Q 1884 428 2741 428 Q 3075 428 3337 486 Q 3600 544 3809 666 z" transform="scale(0.015625)"/><path id="DejaVuSans-76" d="M 191 3500 L 800 3500 L 1894 563 L 2988 3500 L 3597 3500 L 2284 0 L 1503 0 L 191 3500 z" transform="scale(0.015625)"/><path id="DejaVuSans-69" d="M 603 3500 L 1178 3500 L 1178 0 L 603 0 L 603 3500 z M 603 4863 L 1178 4863 L 1178 4134 L 603 4134 L 603 4863 z" transform="scale(0.015625)"/><path id="DejaVuSans-63" d="M 3122 3366 L 3122 2828 Q 2878 2963 2633 3030 Q 2388 3097 2138 3097 Q 1578 3097 1268 2742 Q 959 2388 959 1747 Q 959 1106 1268 751 Q 1578 397 2138 397 Q 2388 397 2633 464 Q 2878 531 3122 666 L 3122 134 Q 2881 22 2623 -34 Q 2366 -91 2075 -91 Q 1284 -91 818 406 Q 353 903 353 1747 Q 353 2603 823 3093 Q 1294 3584 2113 3584 Q 2378 3584 2631 3529 Q 2884 3475 3122 3366 z" transform="scale(0.015625)"/><path id="DejaVuSans-37" d="M 525 4666 L 3525 4666 L 3525 4397 L 1831 0 L 1172 0 L 2766 4134 L 525 4134 L 525 4666 z" transform="scale(0.015625)"/><path id="DejaVuSans-67" d="M 2906 1791 Q 2906 2416 2648 2759 Q 2391 3103 1925 3103 Q 1463 3103 1205 2759 Q 947 2416 947 1791 Q 947 1169 1205 825 Q 1463 481 1925 481 Q 2391 481 2648 825 Q 2906 1169 2906 1791 z M 3481 434 Q 3481 -459 3084 -895 Q 2688 -1331 1869 -1331 Q 1566 -1331 1297 -1286 Q 1028 -1241 775 -1147 L 775 -588 Q 1028 -725 1275 -790 Q 1522 -856 1778 -856 Q 2344 -856 2625 -561 Q 2906 -266 2906 331 L 2906 616 Q 2728 306 2450 153 Q 2172 0 1784 0 Q 1141 0 747 490 Q 353 981 353 1791 Q 353 2603 747 3093 Q 1141 3584 1784 3584 Q 2172 3584 2450 3431 Q 2728 3278 2906 2969 L 2906 3500 L 3481 3500 L 3481 434 z" transform="scale(0.015625)"/><path id="DejaVuSans-2e" d="M 684 794 L 1344 794 L 1344 0 L 684 0 L 684 794 z" transform="scale(0.015625)"/><path id="DejaVuSans-78" d="M 3513 3500 L 2247 1797 L 3578 0 L 2900 0 L 1881 1375 L 863 0 L 184 0 L 1544 1831 L 300 3500 L 978 3500 L 1906 2253 L 2834 3500 L 3513 3500 z" transform="scale(0.015625)"/><path id="DejaVuSans-6c" d="M 603 4863 L 1178 4863 L 1178 0 L 603 0 L 603 4863 z" transform="scale(0.015625)"/></defs><use xlink:href="#DejaVuSans-41"/><use x="62.908" xlink:href="#DejaVuSans-57"/><use x="161.785" xlink:href="#DejaVuSans-53"/><use x="225.262" xlink:href="#DejaVuSans-20"/><use x="257.049" xlink:href="#DejaVuSans-47"/><use x="334.539" xlink:href="#DejaVuSans-72"/><use x="375.652" xlink:href="#DejaVuSans-61"/><use x="436.932" xlink:href="#DejaVuSans-76"/><use x="496.111" xlink:href="#DejaVuSans-69"/><use x="523.895" xlink:href="#DejaVuSans-74"/><use x="563.104" xlink:href="#DejaVuSans-6f"/><use x="624.285" xlink:href="#DejaVuSans-6e"/><use x="687.664" xlink:href="#DejaVuSans-33"/><use x="751.287" xlink:href="#DejaVuSans-20"/><use x="783.074" xlink:href="#DejaVuSans-28"/><use x="822.088" xlink:href="#DejaVuSans-61"/><use x="883.367" xlink:href="#DejaVuSans-72"/><use x="922.73" xlink:href="#DejaVuSans-6d"/><use x="1020.143" xlink:href="#DejaVuSans-36"/><use x="1083.766" xlink:href="#DejaVuSans-34"/><use x="1147.389" xlink:href="#DejaVuSans-29"/><use x="1186.402" xlink:href="#DejaVuSans-28"/><use x="1225.416" xlink:href="#DejaVuSans-63"/><use x="1280.396" xlink:href="#DejaVuSans-37"/><use x="1344.02" xlink:href="#DejaVuSans-67"/><use x="1407.496" xlink:href="#DejaVuSans-2e"/><use x="1439.283" xlink:href="#DejaVuSans-31"/><use x="1502.906" xlink:href="#DejaVuSans-36"/><use x="1566.529" xlink:href="#DejaVuSans-78"/><use x="1625.709" xlink:href="#DejaVuSans-6c"/><use x="1653.492" xlink:href="#DejaVuSans-61"/><use x="1714.771" xlink:href="#DejaVuSans-72"/><use x="1754.135" xlink:href="#DejaVuSans-67"/><use x="1817.611" xlink:href="#DejaVuSans-65"/><use x="1879.135" xlink:href="#DejaVuSans-29"/></g></g><g id="legend_1"><g id="patch_7"><path d="M 64.6 108.1845 L 135.245313 108.1845 Q 137.245313 108.1845 137.245313 106.1845 L 137.245313 48.472 Q 137.245313 46.472 135.245313 46.472 L 64.6 46.472 Q 62.6 46.472 62.6 48.472 L 62.6 106.1845 Q 62.6 108.1845 64.6 108.1845 z" style="fill:#fff;opacity:.8;stroke:#ccc;stroke-linejoin:miter"/></g><g id="line2d_19"><path d="M 66.6 54.570438 L 76.6 54.570438 L 86.6 54.570438" style="fill:none;stroke-dasharray:5.55,2.4;stroke-dashoffset:0;stroke:#1f77b4;stroke-width:1.5"/><g><use x="76.6" y="54.57" xlink:href="#mceaf55a5a3" style="fill:#1f77b4;stroke:#1f77b4"/></g></g><g id="text_18"><g transform="translate(94.6 58.070438) scale(0.1 -0.1)"><use xlink:href="#DejaVuSans-72"/><use x="38.863" xlink:href="#DejaVuSans-65"/><use x="100.387" xlink:href="#DejaVuSans-64"/><use x="163.863" xlink:href="#DejaVuSans-75"/><use x="227.242" xlink:href="#DejaVuSans-63"/><use x="282.223" xlink:href="#DejaVuSans-65"/></g></g><g id="line2d_20"><path d="M 66.6 69.248563 L 76.6 69.248563 L 86.6 69.248563" style="fill:none;stroke-dasharray:5.55,2.4;stroke-dashoffset:0;stroke:#ff7f0e;stroke-width:1.5"/><g><use x="76.6" y="69.249" xlink:href="#m0e1195dce3" style="fill:#ff7f0e;stroke:#ff7f0e"/></g></g><g id="text_19"><g transform="translate(94.6 72.748563) scale(0.1 -0.1)"><use xlink:href="#DejaVuSans-6d"/><use x="97.412" xlink:href="#DejaVuSans-61"/><use x="158.691" xlink:href="#DejaVuSans-74"/><use x="197.9" xlink:href="#DejaVuSans-6d"/><use x="295.313" xlink:href="#DejaVuSans-75"/><use x="358.691" xlink:href="#DejaVuSans-6c"/></g></g><g id="line2d_21"><path d="M 66.6 83.926688 L 76.6 83.926688 L 86.6 83.926688" style="fill:none;stroke-dasharray:5.55,2.4;stroke-dashoffset:0;stroke:#2ca02c;stroke-width:1.5"/><g><use x="76.6" y="83.927" xlink:href="#m175e05f007" style="fill:#2ca02c;stroke:#2ca02c"/></g></g><g id="text_20"><g transform="translate(94.6 87.426688) scale(0.1 -0.1)"><use xlink:href="#DejaVuSans-64"/><use x="63.477" xlink:href="#DejaVuSans-66"/><use x="98.682" xlink:href="#DejaVuSans-73"/></g></g><g id="line2d_22"><path d="M 66.6 98.604813 L 76.6 98.604813 L 86.6 98.604813" style="fill:none;stroke-dasharray:5.55,2.4;stroke-dashoffset:0;stroke:#d62728;stroke-width:1.5"/><g><use x="76.6" y="98.605" xlink:href="#m33200a2255" style="fill:#d62728;stroke:#d62728"/></g></g><g id="text_21"><g transform="translate(94.6 102.104813) scale(0.1 -0.1)"><use xlink:href="#DejaVuSans-66"/><use x="35.205" xlink:href="#DejaVuSans-69"/><use x="62.988" xlink:href="#DejaVuSans-62"/></g></g></g></g></g><defs><clipPath id="p5a74cd782c"><rect width="357.12" height="266.112" x="57.6" y="41.472"/></clipPath></defs></svg>