<svg xmlns="http://www.w3.org/2000/svg" xmlns:xlink="http://www.w3.org/1999/xlink" width="614.4" height="460.8" version="1.1" viewBox="0 0 460.8 345.6"><metadata><rdf:RDF xmlns:cc="http://creativecommons.org/ns#" xmlns:dc="http://purl.org/dc/elements/1.1/" xmlns:rdf="http://www.w3.org/1999/02/22-rdf-syntax-ns#"><cc:Work><dc:type rdf:resource="http://purl.org/dc/dcmitype/StillImage"/><dc:date>2023-03-01T10:45:43.658221</dc:date><dc:format>image/svg+xml</dc:format><dc:creator><cc:Agent><dc:title>Matplotlib v3.7.0, https://matplotlib.org/</dc:title></cc:Agent></dc:creator></cc:Work></rdf:RDF></metadata><defs><style type="text/css">*{stroke-linejoin:round;stroke-linecap:butt}</style></defs><g id="figure_1"><g id="patch_1"><path d="M 0 345.6 L 460.8 345.6 L 460.8 0 L 0 0 z" style="fill:#fff"/></g><g id="axes_1"><g id="patch_2"><path d="M 57.6 307.584 L 414.72 307.584 L 414.72 41.472 L 57.6 41.472 z" style="fill:#fff"/></g><g id="matplotlib.axis_1"><g id="xtick_1"><g id="line2d_1"><defs><path id="m6983fdf4ad" d="M 0 0 L 0 3.5" style="stroke:#000;stroke-width:.8"/></defs><g><use x="95.476" y="307.584" xlink:href="#m6983fdf4ad" style="stroke:#000;stroke-width:.8"/></g></g><g id="text_1"><g transform="translate(92.295114 322.182437) scale(0.1 -0.1)"><defs><path id="DejaVuSans-32" d="M 1228 531 L 3431 531 L 3431 0 L 469 0 L 469 531 Q 828 903 1448 1529 Q 2069 2156 2228 2338 Q 2531 2678 2651 2914 Q 2772 3150 2772 3378 Q 2772 3750 2511 3984 Q 2250 4219 1831 4219 Q 1534 4219 1204 4116 Q 875 4013 500 3803 L 500 4441 Q 881 4594 1212 4672 Q 1544 4750 1819 4750 Q 2544 4750 2975 4387 Q 3406 4025 3406 3419 Q 3406 3131 3298 2873 Q 3191 2616 2906 2266 Q 2828 2175 2409 1742 Q 1991 1309 1228 531 z" transform="scale(0.015625)"/></defs><use xlink:href="#DejaVuSans-32"/></g></g></g><g id="xtick_2"><g id="line2d_2"><g><use x="138.764" y="307.584" xlink:href="#m6983fdf4ad" style="stroke:#000;stroke-width:.8"/></g></g><g id="text_2"><g transform="translate(135.582386 322.182437) scale(0.1 -0.1)"><defs><path id="DejaVuSans-34" d="M 2419 4116 L 825 1625 L 2419 1625 L 2419 4116 z M 2253 4666 L 3047 4666 L 3047 1625 L 3713 1625 L 3713 1100 L 3047 1100 L 3047 0 L 2419 0 L 2419 1100 L 313 1100 L 313 1709 L 2253 4666 z" transform="scale(0.015625)"/></defs><use xlink:href="#DejaVuSans-34"/></g></g></g><g id="xtick_3"><g id="line2d_3"><g><use x="182.051" y="307.584" xlink:href="#m6983fdf4ad" style="stroke:#000;stroke-width:.8"/></g></g><g id="text_3"><g transform="translate(178.869659 322.182437) scale(0.1 -0.1)"><defs><path id="DejaVuSans-36" d="M 2113 2584 Q 1688 2584 1439 2293 Q 1191 2003 1191 1497 Q 1191 994 1439 701 Q 1688 409 2113 409 Q 2538 409 2786 701 Q 3034 994 3034 1497 Q 3034 2003 2786 2293 Q 2538 2584 2113 2584 z M 3366 4563 L 3366 3988 Q 3128 4100 2886 4159 Q 2644 4219 2406 4219 Q 1781 4219 1451 3797 Q 1122 3375 1075 2522 Q 1259 2794 1537 2939 Q 1816 3084 2150 3084 Q 2853 3084 3261 2657 Q 3669 2231 3669 1497 Q 3669 778 3244 343 Q 2819 -91 2113 -91 Q 1303 -91 875 529 Q 447 1150 447 2328 Q 447 3434 972 4092 Q 1497 4750 2381 4750 Q 2619 4750 2861 4703 Q 3103 4656 3366 4563 z" transform="scale(0.015625)"/></defs><use xlink:href="#DejaVuSans-36"/></g></g></g><g id="xtick_4"><g id="line2d_4"><g><use x="225.338" y="307.584" xlink:href="#m6983fdf4ad" style="stroke:#000;stroke-width:.8"/></g></g><g id="text_4"><g transform="translate(222.156932 322.182437) scale(0.1 -0.1)"><defs><path id="DejaVuSans-38" d="M 2034 2216 Q 1584 2216 1326 1975 Q 1069 1734 1069 1313 Q 1069 891 1326 650 Q 1584 409 2034 409 Q 2484 409 2743 651 Q 3003 894 3003 1313 Q 3003 1734 2745 1975 Q 2488 2216 2034 2216 z M 1403 2484 Q 997 2584 770 2862 Q 544 3141 544 3541 Q 544 4100 942 4425 Q 1341 4750 2034 4750 Q 2731 4750 3128 4425 Q 3525 4100 3525 3541 Q 3525 3141 3298 2862 Q 3072 2584 2669 2484 Q 3125 2378 3379 2068 Q 3634 1759 3634 1313 Q 3634 634 3220 271 Q 2806 -91 2034 -91 Q 1263 -91 848 271 Q 434 634 434 1313 Q 434 1759 690 2068 Q 947 2378 1403 2484 z M 1172 3481 Q 1172 3119 1398 2916 Q 1625 2713 2034 2713 Q 2441 2713 2670 2916 Q 2900 3119 2900 3481 Q 2900 3844 2670 4047 Q 2441 4250 2034 4250 Q 1625 4250 1398 4047 Q 1172 3844 1172 3481 z" transform="scale(0.015625)"/></defs><use xlink:href="#DejaVuSans-38"/></g></g></g><g id="xtick_5"><g id="line2d_5"><g><use x="268.625" y="307.584" xlink:href="#m6983fdf4ad" style="stroke:#000;stroke-width:.8"/></g></g><g id="text_5"><g transform="translate(262.262955 322.182437) scale(0.1 -0.1)"><defs><path id="DejaVuSans-31" d="M 794 531 L 1825 531 L 1825 4091 L 703 3866 L 703 4441 L 1819 4666 L 2450 4666 L 2450 531 L 3481 531 L 3481 0 L 794 0 L 794 531 z" transform="scale(0.015625)"/><path id="DejaVuSans-30" d="M 2034 4250 Q 1547 4250 1301 3770 Q 1056 3291 1056 2328 Q 1056 1369 1301 889 Q 1547 409 2034 409 Q 2525 409 2770 889 Q 3016 1369 3016 2328 Q 3016 3291 2770 3770 Q 2525 4250 2034 4250 z M 2034 4750 Q 2819 4750 3233 4129 Q 3647 3509 3647 2328 Q 3647 1150 3233 529 Q 2819 -91 2034 -91 Q 1250 -91 836 529 Q 422 1150 422 2328 Q 422 3509 836 4129 Q 1250 4750 2034 4750 z" transform="scale(0.015625)"/></defs><use xlink:href="#DejaVuSans-31"/><use x="63.623" xlink:href="#DejaVuSans-30"/></g></g></g><g id="xtick_6"><g id="line2d_6"><g><use x="311.913" y="307.584" xlink:href="#m6983fdf4ad" style="stroke:#000;stroke-width:.8"/></g></g><g id="text_6"><g transform="translate(305.550227 322.182437) scale(0.1 -0.1)"><use xlink:href="#DejaVuSans-31"/><use x="63.623" xlink:href="#DejaVuSans-32"/></g></g></g><g id="xtick_7"><g id="line2d_7"><g><use x="355.2" y="307.584" xlink:href="#m6983fdf4ad" style="stroke:#000;stroke-width:.8"/></g></g><g id="text_7"><g transform="translate(348.8375 322.182437) scale(0.1 -0.1)"><use xlink:href="#DejaVuSans-31"/><use x="63.623" xlink:href="#DejaVuSans-34"/></g></g></g><g id="xtick_8"><g id="line2d_8"><g><use x="398.487" y="307.584" xlink:href="#m6983fdf4ad" style="stroke:#000;stroke-width:.8"/></g></g><g id="text_8"><g transform="translate(392.124773 322.182437) scale(0.1 -0.1)"><use xlink:href="#DejaVuSans-31"/><use x="63.623" xlink:href="#DejaVuSans-36"/></g></g></g><g id="text_9"><g transform="translate(189.085 335.860562) scale(0.1 -0.1)"><defs><path id="DejaVuSans-4e" d="M 628 4666 L 1478 4666 L 3547 763 L 3547 4666 L 4159 4666 L 4159 0 L 3309 0 L 1241 3903 L 1241 0 L 628 0 L 628 4666 z" transform="scale(0.015625)"/><path id="DejaVuSans-75" d="M 544 1381 L 544 3500 L 1119 3500 L 1119 1403 Q 1119 906 1312 657 Q 1506 409 1894 409 Q 2359 409 2629 706 Q 2900 1003 2900 1516 L 2900 3500 L 3475 3500 L 3475 0 L 2900 0 L 2900 538 Q 2691 219 2414 64 Q 2138 -91 1772 -91 Q 1169 -91 856 284 Q 544 659 544 1381 z M 1991 3584 L 1991 3584 z" transform="scale(0.015625)"/><path id="DejaVuSans-6d" d="M 3328 2828 Q 3544 3216 3844 3400 Q 4144 3584 4550 3584 Q 5097 3584 5394 3201 Q 5691 2819 5691 2113 L 5691 0 L 5113 0 L 5113 2094 Q 5113 2597 4934 2840 Q 4756 3084 4391 3084 Q 3944 3084 3684 2787 Q 3425 2491 3425 1978 L 3425 0 L 2847 0 L 2847 2094 Q 2847 2600 2669 2842 Q 2491 3084 2119 3084 Q 1678 3084 1418 2786 Q 1159 2488 1159 1978 L 1159 0 L 581 0 L 581 3500 L 1159 3500 L 1159 2956 Q 1356 3278 1631 3431 Q 1906 3584 2284 3584 Q 2666 3584 2933 3390 Q 3200 3197 3328 2828 z" transform="scale(0.015625)"/><path id="DejaVuSans-62" d="M 3116 1747 Q 3116 2381 2855 2742 Q 2594 3103 2138 3103 Q 1681 3103 1420 2742 Q 1159 2381 1159 1747 Q 1159 1113 1420 752 Q 1681 391 2138 391 Q 2594 391 2855 752 Q 3116 1113 3116 1747 z M 1159 2969 Q 1341 3281 1617 3432 Q 1894 3584 2278 3584 Q 2916 3584 3314 3078 Q 3713 2572 3713 1747 Q 3713 922 3314 415 Q 2916 -91 2278 -91 Q 1894 -91 1617 61 Q 1341 213 1159 525 L 1159 0 L 581 0 L 581 4863 L 1159 4863 L 1159 2969 z" transform="scale(0.015625)"/><path id="DejaVuSans-65" d="M 3597 1894 L 3597 1613 L 953 1613 Q 991 1019 1311 708 Q 1631 397 2203 397 Q 2534 397 2845 478 Q 3156 559 3463 722 L 3463 178 Q 3153 47 2828 -22 Q 2503 -91 2169 -91 Q 1331 -91 842 396 Q 353 884 353 1716 Q 353 2575 817 3079 Q 1281 3584 2069 3584 Q 2775 3584 3186 3129 Q 3597 2675 3597 1894 z M 3022 2063 Q 3016 2534 2758 2815 Q 2500 3097 2075 3097 Q 1594 3097 1305 2825 Q 1016 2553 972 2059 L 3022 2063 z" transform="scale(0.015625)"/><path id="DejaVuSans-72" d="M 2631 2963 Q 2534 3019 2420 3045 Q 2306 3072 2169 3072 Q 1681 3072 1420 2755 Q 1159 2438 1159 1844 L 1159 0 L 581 0 L 581 3500 L 1159 3500 L 1159 2956 Q 1341 3275 1631 3429 Q 1922 3584 2338 3584 Q 2397 3584 2469 3576 Q 2541 3569 2628 3553 L 2631 2963 z" transform="scale(0.015625)"/><path id="DejaVuSans-20" transform="scale(0.015625)"/><path id="DejaVuSans-6f" d="M 1959 3097 Q 1497 3097 1228 2736 Q 959 2375 959 1747 Q 959 1119 1226 758 Q 1494 397 1959 397 Q 2419 397 2687 759 Q 2956 1122 2956 1747 Q 2956 2369 2687 2733 Q 2419 3097 1959 3097 z M 1959 3584 Q 2709 3584 3137 3096 Q 3566 2609 3566 1747 Q 3566 888 3137 398 Q 2709 -91 1959 -91 Q 1206 -91 779 398 Q 353 888 353 1747 Q 353 2609 779 3096 Q 1206 3584 1959 3584 z" transform="scale(0.015625)"/><path id="DejaVuSans-66" d="M 2375 4863 L 2375 4384 L 1825 4384 Q 1516 4384 1395 4259 Q 1275 4134 1275 3809 L 1275 3500 L 2222 3500 L 2222 3053 L 1275 3053 L 1275 0 L 697 0 L 697 3053 L 147 3053 L 147 3500 L 697 3500 L 697 3744 Q 697 4328 969 4595 Q 1241 4863 1831 4863 L 2375 4863 z" transform="scale(0.015625)"/><path id="DejaVuSans-74" d="M 1172 4494 L 1172 3500 L 2356 3500 L 2356 3053 L 1172 3053 L 1172 1153 Q 1172 725 1289 603 Q 1406 481 1766 481 L 2356 481 L 2356 0 L 1766 0 Q 1100 0 847 248 Q 594 497 594 1153 L 594 3053 L 172 3053 L 172 3500 L 594 3500 L 594 4494 L 1172 4494 z" transform="scale(0.015625)"/><path id="DejaVuSans-68" d="M 3513 2113 L 3513 0 L 2938 0 L 2938 2094 Q 2938 2591 2744 2837 Q 2550 3084 2163 3084 Q 1697 3084 1428 2787 Q 1159 2491 1159 1978 L 1159 0 L 581 0 L 581 4863 L 1159 4863 L 1159 2956 Q 1366 3272 1645 3428 Q 1925 3584 2291 3584 Q 2894 3584 3203 3211 Q 3513 2838 3513 2113 z" transform="scale(0.015625)"/><path id="DejaVuSans-61" d="M 2194 1759 Q 1497 1759 1228 1600 Q 959 1441 959 1056 Q 959 750 1161 570 Q 1363 391 1709 391 Q 2188 391 2477 730 Q 2766 1069 2766 1631 L 2766 1759 L 2194 1759 z M 3341 1997 L 3341 0 L 2766 0 L 2766 531 Q 2569 213 2275 61 Q 1981 -91 1556 -91 Q 1019 -91 701 211 Q 384 513 384 1019 Q 384 1609 779 1909 Q 1175 2209 1959 2209 L 2766 2209 L 2766 2266 Q 2766 2663 2505 2880 Q 2244 3097 1772 3097 Q 1472 3097 1187 3025 Q 903 2953 641 2809 L 641 3341 Q 956 3463 1253 3523 Q 1550 3584 1831 3584 Q 2591 3584 2966 3190 Q 3341 2797 3341 1997 z" transform="scale(0.015625)"/><path id="DejaVuSans-64" d="M 2906 2969 L 2906 4863 L 3481 4863 L 3481 0 L 2906 0 L 2906 525 Q 2725 213 2448 61 Q 2172 -91 1784 -91 Q 1150 -91 751 415 Q 353 922 353 1747 Q 353 2572 751 3078 Q 1150 3584 1784 3584 Q 2172 3584 2448 3432 Q 2725 3281 2906 2969 z M 947 1747 Q 947 1113 1208 752 Q 1469 391 1925 391 Q 2381 391 2643 752 Q 2906 1113 2906 1747 Q 2906 2381 2643 2742 Q 2381 3103 1925 3103 Q 1469 3103 1208 2742 Q 947 2381 947 1747 z" transform="scale(0.015625)"/><path id="DejaVuSans-73" d="M 2834 3397 L 2834 2853 Q 2591 2978 2328 3040 Q 2066 3103 1784 3103 Q 1356 3103 1142 2972 Q 928 2841 928 2578 Q 928 2378 1081 2264 Q 1234 2150 1697 2047 L 1894 2003 Q 2506 1872 2764 1633 Q 3022 1394 3022 966 Q 3022 478 2636 193 Q 2250 -91 1575 -91 Q 1294 -91 989 -36 Q 684 19 347 128 L 347 722 Q 666 556 975 473 Q 1284 391 1588 391 Q 1994 391 2212 530 Q 2431 669 2431 922 Q 2431 1156 2273 1281 Q 2116 1406 1581 1522 L 1381 1569 Q 847 1681 609 1914 Q 372 2147 372 2553 Q 372 3047 722 3315 Q 1072 3584 1716 3584 Q 2034 3584 2315 3537 Q 2597 3491 2834 3397 z" transform="scale(0.015625)"/></defs><use xlink:href="#DejaVuSans-4e"/><use x="74.805" xlink:href="#DejaVuSans-75"/><use x="138.184" xlink:href="#DejaVuSans-6d"/><use x="235.596" xlink:href="#DejaVuSans-62"/><use x="299.072" xlink:href="#DejaVuSans-65"/><use x="360.596" xlink:href="#DejaVuSans-72"/><use x="401.709" xlink:href="#DejaVuSans-20"/><use x="433.496" xlink:href="#DejaVuSans-6f"/><use x="494.678" xlink:href="#DejaVuSans-66"/><use x="529.883" xlink:href="#DejaVuSans-20"/><use x="561.67" xlink:href="#DejaVuSans-74"/><use x="600.879" xlink:href="#DejaVuSans-68"/><use x="664.258" xlink:href="#DejaVuSans-72"/><use x="703.121" xlink:href="#DejaVuSans-65"/><use x="764.645" xlink:href="#DejaVuSans-61"/><use x="825.924" xlink:href="#DejaVuSans-64"/><use x="889.4" xlink:href="#DejaVuSans-73"/></g></g></g><g id="matplotlib.axis_2"><g id="ytick_1"><g id="line2d_9"><defs><path id="maa2b0a108e" d="M 0 0 L -3.5 0" style="stroke:#000;stroke-width:.8"/></defs><g><use x="57.6" y="297.457" xlink:href="#maa2b0a108e" style="stroke:#000;stroke-width:.8"/></g></g><g id="text_10"><g transform="translate(44.2375 301.256635) scale(0.1 -0.1)"><use xlink:href="#DejaVuSans-30"/></g></g></g><g id="ytick_2"><g id="line2d_10"><g><use x="57.6" y="238.636" xlink:href="#maa2b0a108e" style="stroke:#000;stroke-width:.8"/></g></g><g id="text_11"><g transform="translate(37.875 242.435008) scale(0.1 -0.1)"><defs><path id="DejaVuSans-35" d="M 691 4666 L 3169 4666 L 3169 4134 L 1269 4134 L 1269 2991 Q 1406 3038 1543 3061 Q 1681 3084 1819 3084 Q 2600 3084 3056 2656 Q 3513 2228 3513 1497 Q 3513 744 3044 326 Q 2575 -91 1722 -91 Q 1428 -91 1123 -41 Q 819 9 494 109 L 494 744 Q 775 591 1075 516 Q 1375 441 1709 441 Q 2250 441 2565 725 Q 2881 1009 2881 1497 Q 2881 1984 2565 2268 Q 2250 2553 1709 2553 Q 1456 2553 1204 2497 Q 953 2441 691 2322 L 691 4666 z" transform="scale(0.015625)"/></defs><use xlink:href="#DejaVuSans-35"/><use x="63.623" xlink:href="#DejaVuSans-30"/></g></g></g><g id="ytick_3"><g id="line2d_11"><g><use x="57.6" y="179.814" xlink:href="#maa2b0a108e" style="stroke:#000;stroke-width:.8"/></g></g><g id="text_12"><g transform="translate(31.5125 183.61338) scale(0.1 -0.1)"><use xlink:href="#DejaVuSans-31"/><use x="63.623" xlink:href="#DejaVuSans-30"/><use x="127.246" xlink:href="#DejaVuSans-30"/></g></g></g><g id="ytick_4"><g id="line2d_12"><g><use x="57.6" y="120.993" xlink:href="#maa2b0a108e" style="stroke:#000;stroke-width:.8"/></g></g><g id="text_13"><g transform="translate(31.5125 124.791753) scale(0.1 -0.1)"><use xlink:href="#DejaVuSans-31"/><use x="63.623" xlink:href="#DejaVuSans-35"/><use x="127.246" xlink:href="#DejaVuSans-30"/></g></g></g><g id="ytick_5"><g id="line2d_13"><g><use x="57.6" y="62.171" xlink:href="#maa2b0a108e" style="stroke:#000;stroke-width:.8"/></g></g><g id="text_14"><g transform="translate(31.5125 65.970125) scale(0.1 -0.1)"><use xlink:href="#DejaVuSans-32"/><use x="63.623" xlink:href="#DejaVuSans-30"/><use x="127.246" xlink:href="#DejaVuSans-30"/></g></g></g><g id="text_15"><g transform="translate(25.432812 231.333469) rotate(-90) scale(0.1 -0.1)"><defs><path id="DejaVuSans-4f" d="M 2522 4238 Q 1834 4238 1429 3725 Q 1025 3213 1025 2328 Q 1025 1447 1429 934 Q 1834 422 2522 422 Q 3209 422 3611 934 Q 4013 1447 4013 2328 Q 4013 3213 3611 3725 Q 3209 4238 2522 4238 z M 2522 4750 Q 3503 4750 4090 4092 Q 4678 3434 4678 2328 Q 4678 1225 4090 567 Q 3503 -91 2522 -91 Q 1538 -91 948 565 Q 359 1222 359 2328 Q 359 3434 948 4092 Q 1538 4750 2522 4750 z" transform="scale(0.015625)"/><path id="DejaVuSans-70" d="M 1159 525 L 1159 -1331 L 581 -1331 L 581 3500 L 1159 3500 L 1159 2969 Q 1341 3281 1617 3432 Q 1894 3584 2278 3584 Q 2916 3584 3314 3078 Q 3713 2572 3713 1747 Q 3713 922 3314 415 Q 2916 -91 2278 -91 Q 1894 -91 1617 61 Q 1341 213 1159 525 z M 3116 1747 Q 3116 2381 2855 2742 Q 2594 3103 2138 3103 Q 1681 3103 1420 2742 Q 1159 2381 1159 1747 Q 1159 1113 1420 752 Q 1681 391 2138 391 Q 2594 391 2855 752 Q 3116 1113 3116 1747 z" transform="scale(0.015625)"/><path id="DejaVuSans-69" d="M 603 3500 L 1178 3500 L 1178 0 L 603 0 L 603 3500 z M 603 4863 L 1178 4863 L 1178 4134 L 603 4134 L 603 4863 z" transform="scale(0.015625)"/><path id="DejaVuSans-6e" d="M 3513 2113 L 3513 0 L 2938 0 L 2938 2094 Q 2938 2591 2744 2837 Q 2550 3084 2163 3084 Q 1697 3084 1428 2787 Q 1159 2491 1159 1978 L 1159 0 L 581 0 L 581 3500 L 1159 3500 L 1159 2956 Q 1366 3272 1645 3428 Q 1925 3584 2291 3584 Q 2894 3584 3203 3211 Q 3513 2838 3513 2113 z" transform="scale(0.015625)"/><path id="DejaVuSans-63" d="M 3122 3366 L 3122 2828 Q 2878 2963 2633 3030 Q 2388 3097 2138 3097 Q 1578 3097 1268 2742 Q 959 2388 959 1747 Q 959 1106 1268 751 Q 1578 397 2138 397 Q 2388 397 2633 464 Q 2878 531 3122 666 L 3122 134 Q 2881 22 2623 -34 Q 2366 -91 2075 -91 Q 1284 -91 818 406 Q 353 903 353 1747 Q 353 2603 823 3093 Q 1294 3584 2113 3584 Q 2378 3584 2631 3529 Q 2884 3475 3122 3366 z" transform="scale(0.015625)"/></defs><use xlink:href="#DejaVuSans-4f"/><use x="78.711" xlink:href="#DejaVuSans-70"/><use x="142.188" xlink:href="#DejaVuSans-65"/><use x="203.711" xlink:href="#DejaVuSans-72"/><use x="244.824" xlink:href="#DejaVuSans-61"/><use x="306.104" xlink:href="#DejaVuSans-74"/><use x="345.313" xlink:href="#DejaVuSans-69"/><use x="373.096" xlink:href="#DejaVuSans-6f"/><use x="434.277" xlink:href="#DejaVuSans-6e"/><use x="497.656" xlink:href="#DejaVuSans-73"/><use x="549.756" xlink:href="#DejaVuSans-20"/><use x="581.543" xlink:href="#DejaVuSans-70"/><use x="645.02" xlink:href="#DejaVuSans-65"/><use x="706.543" xlink:href="#DejaVuSans-72"/><use x="747.656" xlink:href="#DejaVuSans-20"/><use x="779.443" xlink:href="#DejaVuSans-73"/><use x="831.543" xlink:href="#DejaVuSans-65"/><use x="893.066" xlink:href="#DejaVuSans-63"/><use x="948.047" xlink:href="#DejaVuSans-6f"/><use x="1009.229" xlink:href="#DejaVuSans-6e"/><use x="1072.607" xlink:href="#DejaVuSans-64"/></g></g></g><g id="line2d_14"><path d="M 73.832727 285.372046 L 95.476364 258.4815 L 117.12 247.011129 L 138.763636 220.134061 L 160.407273 206.079437 L 182.050909 191.796301 L 203.694545 176.557306 L 225.338182 158.525696 L 246.981818 147.521505 L 268.625455 129.09541 L 290.269091 115.971107 L 311.912727 109.046098 L 333.556364 93.924345 L 355.2 96.725466 L 376.843636 90.739235 L 398.487273 53.568" clip-path="url(#p78af3ef007)" style="fill:none;stroke-dasharray:5.55,2.4;stroke-dashoffset:0;stroke:#1f77b4;stroke-width:1.5"/><defs><path id="m81834d8ab3" d="M -3 0 L 3 0 M 0 3 L 0 -3" style="stroke:#1f77b4"/></defs><g clip-path="url(#p78af3ef007)"><use x="73.833" y="285.372" xlink:href="#m81834d8ab3" style="fill:#1f77b4;stroke:#1f77b4"/><use x="95.476" y="258.481" xlink:href="#m81834d8ab3" style="fill:#1f77b4;stroke:#1f77b4"/><use x="117.12" y="247.011" xlink:href="#m81834d8ab3" style="fill:#1f77b4;stroke:#1f77b4"/><use x="138.764" y="220.134" xlink:href="#m81834d8ab3" style="fill:#1f77b4;stroke:#1f77b4"/><use x="160.407" y="206.079" xlink:href="#m81834d8ab3" style="fill:#1f77b4;stroke:#1f77b4"/><use x="182.051" y="191.796" xlink:href="#m81834d8ab3" style="fill:#1f77b4;stroke:#1f77b4"/><use x="203.695" y="176.557" xlink:href="#m81834d8ab3" style="fill:#1f77b4;stroke:#1f77b4"/><use x="225.338" y="158.526" xlink:href="#m81834d8ab3" style="fill:#1f77b4;stroke:#1f77b4"/><use x="246.982" y="147.522" xlink:href="#m81834d8ab3" style="fill:#1f77b4;stroke:#1f77b4"/><use x="268.625" y="129.095" xlink:href="#m81834d8ab3" style="fill:#1f77b4;stroke:#1f77b4"/><use x="290.269" y="115.971" xlink:href="#m81834d8ab3" style="fill:#1f77b4;stroke:#1f77b4"/><use x="311.913" y="109.046" xlink:href="#m81834d8ab3" style="fill:#1f77b4;stroke:#1f77b4"/><use x="333.556" y="93.924" xlink:href="#m81834d8ab3" style="fill:#1f77b4;stroke:#1f77b4"/><use x="355.2" y="96.725" xlink:href="#m81834d8ab3" style="fill:#1f77b4;stroke:#1f77b4"/><use x="376.844" y="90.739" xlink:href="#m81834d8ab3" style="fill:#1f77b4;stroke:#1f77b4"/><use x="398.487" y="53.568" xlink:href="#m81834d8ab3" style="fill:#1f77b4;stroke:#1f77b4"/></g></g><g id="line2d_15"><path d="M 73.832727 286.716039 L 95.476364 295.488 L 117.12 294.523619 L 138.763636 293.55415 L 160.407273 292.652941 L 182.050909 291.781573 L 203.694545 290.840476 L 225.338182 289.916499 L 246.981818 289.147202 L 268.625455 288.467902 L 290.269091 287.955095 L 311.912727 287.498389 L 333.556364 287.021718 L 355.2 286.449405 L 376.843636 286.543695 L 398.487273 287.013084" clip-path="url(#p78af3ef007)" style="fill:none;stroke-dasharray:5.55,2.4;stroke-dashoffset:0;stroke:#ff7f0e;stroke-width:1.5"/><defs><path id="m65d3243373" d="M -3 0 L 3 0 M 0 3 L 0 -3" style="stroke:#ff7f0e"/></defs><g clip-path="url(#p78af3ef007)"><use x="73.833" y="286.716" xlink:href="#m65d3243373" style="fill:#ff7f0e;stroke:#ff7f0e"/><use x="95.476" y="295.488" xlink:href="#m65d3243373" style="fill:#ff7f0e;stroke:#ff7f0e"/><use x="117.12" y="294.524" xlink:href="#m65d3243373" style="fill:#ff7f0e;stroke:#ff7f0e"/><use x="138.764" y="293.554" xlink:href="#m65d3243373" style="fill:#ff7f0e;stroke:#ff7f0e"/><use x="160.407" y="292.653" xlink:href="#m65d3243373" style="fill:#ff7f0e;stroke:#ff7f0e"/><use x="182.051" y="291.782" xlink:href="#m65d3243373" style="fill:#ff7f0e;stroke:#ff7f0e"/><use x="203.695" y="290.84" xlink:href="#m65d3243373" style="fill:#ff7f0e;stroke:#ff7f0e"/><use x="225.338" y="289.916" xlink:href="#m65d3243373" style="fill:#ff7f0e;stroke:#ff7f0e"/><use x="246.982" y="289.147" xlink:href="#m65d3243373" style="fill:#ff7f0e;stroke:#ff7f0e"/><use x="268.625" y="288.468" xlink:href="#m65d3243373" style="fill:#ff7f0e;stroke:#ff7f0e"/><use x="290.269" y="287.955" xlink:href="#m65d3243373" style="fill:#ff7f0e;stroke:#ff7f0e"/><use x="311.913" y="287.498" xlink:href="#m65d3243373" style="fill:#ff7f0e;stroke:#ff7f0e"/><use x="333.556" y="287.022" xlink:href="#m65d3243373" style="fill:#ff7f0e;stroke:#ff7f0e"/><use x="355.2" y="286.449" xlink:href="#m65d3243373" style="fill:#ff7f0e;stroke:#ff7f0e"/><use x="376.844" y="286.544" xlink:href="#m65d3243373" style="fill:#ff7f0e;stroke:#ff7f0e"/><use x="398.487" y="287.013" xlink:href="#m65d3243373" style="fill:#ff7f0e;stroke:#ff7f0e"/></g></g><g id="line2d_16"><path d="M 73.832727 140.342263 L 95.476364 134.444416 L 117.12 138.31191 L 138.763636 129.887919 L 160.407273 128.562222 L 182.050909 125.156656 L 203.694545 127.012388 L 225.338182 122.956386 L 246.981818 129.511482 L 268.625455 127.613255 L 290.269091 122.766607 L 311.912727 123.8978 L 333.556364 128.750416 L 355.2 123.510657 L 376.843636 121.533956 L 398.487273 121.619125" clip-path="url(#p78af3ef007)" style="fill:none;stroke-dasharray:5.55,2.4;stroke-dashoffset:0;stroke:#2ca02c;stroke-width:1.5"/><defs><path id="m9d4a162cf2" d="M -3 0 L 3 0 M 0 3 L 0 -3" style="stroke:#2ca02c"/></defs><g clip-path="url(#p78af3ef007)"><use x="73.833" y="140.342" xlink:href="#m9d4a162cf2" style="fill:#2ca02c;stroke:#2ca02c"/><use x="95.476" y="134.444" xlink:href="#m9d4a162cf2" style="fill:#2ca02c;stroke:#2ca02c"/><use x="117.12" y="138.312" xlink:href="#m9d4a162cf2" style="fill:#2ca02c;stroke:#2ca02c"/><use x="138.764" y="129.888" xlink:href="#m9d4a162cf2" style="fill:#2ca02c;stroke:#2ca02c"/><use x="160.407" y="128.562" xlink:href="#m9d4a162cf2" style="fill:#2ca02c;stroke:#2ca02c"/><use x="182.051" y="125.157" xlink:href="#m9d4a162cf2" style="fill:#2ca02c;stroke:#2ca02c"/><use x="203.695" y="127.012" xlink:href="#m9d4a162cf2" style="fill:#2ca02c;stroke:#2ca02c"/><use x="225.338" y="122.956" xlink:href="#m9d4a162cf2" style="fill:#2ca02c;stroke:#2ca02c"/><use x="246.982" y="129.511" xlink:href="#m9d4a162cf2" style="fill:#2ca02c;stroke:#2ca02c"/><use x="268.625" y="127.613" xlink:href="#m9d4a162cf2" style="fill:#2ca02c;stroke:#2ca02c"/><use x="290.269" y="122.767" xlink:href="#m9d4a162cf2" style="fill:#2ca02c;stroke:#2ca02c"/><use x="311.913" y="123.898" xlink:href="#m9d4a162cf2" style="fill:#2ca02c;stroke:#2ca02c"/><use x="333.556" y="128.75" xlink:href="#m9d4a162cf2" style="fill:#2ca02c;stroke:#2ca02c"/><use x="355.2" y="123.511" xlink:href="#m9d4a162cf2" style="fill:#2ca02c;stroke:#2ca02c"/><use x="376.844" y="121.534" xlink:href="#m9d4a162cf2" style="fill:#2ca02c;stroke:#2ca02c"/><use x="398.487" y="121.619" xlink:href="#m9d4a162cf2" style="fill:#2ca02c;stroke:#2ca02c"/></g></g><g id="line2d_17"><path d="M 73.832727 282.385291 L 95.476364 267.456092 L 117.12 252.50314 L 138.763636 238.804387 L 160.407273 231.734087 L 182.050909 234.416579 L 203.694545 213.900592 L 225.338182 183.625923 L 246.981818 241.973708 L 268.625455 165.626491 L 290.269091 156.251293 L 311.912727 139.910802 L 333.556364 131.958376 L 355.2 122.18836 L 376.843636 113.113095 L 398.487273 111.118018" clip-path="url(#p78af3ef007)" style="fill:none;stroke-dasharray:5.55,2.4;stroke-dashoffset:0;stroke:#d62728;stroke-width:1.5"/><defs><path id="m4cc32502cc" d="M -3 0 L 3 0 M 0 3 L 0 -3" style="stroke:#d62728"/></defs><g clip-path="url(#p78af3ef007)"><use x="73.833" y="282.385" xlink:href="#m4cc32502cc" style="fill:#d62728;stroke:#d62728"/><use x="95.476" y="267.456" xlink:href="#m4cc32502cc" style="fill:#d62728;stroke:#d62728"/><use x="117.12" y="252.503" xlink:href="#m4cc32502cc" style="fill:#d62728;stroke:#d62728"/><use x="138.764" y="238.804" xlink:href="#m4cc32502cc" style="fill:#d62728;stroke:#d62728"/><use x="160.407" y="231.734" xlink:href="#m4cc32502cc" style="fill:#d62728;stroke:#d62728"/><use x="182.051" y="234.417" xlink:href="#m4cc32502cc" style="fill:#d62728;stroke:#d62728"/><use x="203.695" y="213.901" xlink:href="#m4cc32502cc" style="fill:#d62728;stroke:#d62728"/><use x="225.338" y="183.626" xlink:href="#m4cc32502cc" style="fill:#d62728;stroke:#d62728"/><use x="246.982" y="241.974" xlink:href="#m4cc32502cc" style="fill:#d62728;stroke:#d62728"/><use x="268.625" y="165.626" xlink:href="#m4cc32502cc" style="fill:#d62728;stroke:#d62728"/><use x="290.269" y="156.251" xlink:href="#m4cc32502cc" style="fill:#d62728;stroke:#d62728"/><use x="311.913" y="139.911" xlink:href="#m4cc32502cc" style="fill:#d62728;stroke:#d62728"/><use x="333.556" y="131.958" xlink:href="#m4cc32502cc" style="fill:#d62728;stroke:#d62728"/><use x="355.2" y="122.188" xlink:href="#m4cc32502cc" style="fill:#d62728;stroke:#d62728"/><use x="376.844" y="113.113" xlink:href="#m4cc32502cc" style="fill:#d62728;stroke:#d62728"/><use x="398.487" y="111.118" xlink:href="#m4cc32502cc" style="fill:#d62728;stroke:#d62728"/></g></g><g id="patch_3"><path d="M 57.6 307.584 L 57.6 41.472" style="fill:none;stroke:#000;stroke-width:.8;stroke-linejoin:miter;stroke-linecap:square"/></g><g id="patch_4"><path d="M 414.72 307.584 L 414.72 41.472" style="fill:none;stroke:#000;stroke-width:.8;stroke-linejoin:miter;stroke-linecap:square"/></g><g id="patch_5"><path d="M 57.6 307.584 L 414.72 307.584" style="fill:none;stroke:#000;stroke-width:.8;stroke-linejoin:miter;stroke-linecap:square"/></g><g id="patch_6"><path d="M 57.6 41.472 L 414.72 41.472" style="fill:none;stroke:#000;stroke-width:.8;stroke-linejoin:miter;stroke-linecap:square"/></g><g id="text_16"><g transform="translate(188.610938 35.472) scale(0.12 -0.12)"><defs><path id="DejaVuSans-44" d="M 1259 4147 L 1259 519 L 2022 519 Q 2988 519 3436 956 Q 3884 1394 3884 2338 Q 3884 3275 3436 3711 Q 2988 4147 2022 4147 L 1259 4147 z M 628 4666 L 1925 4666 Q 3281 4666 3915 4102 Q 4550 3538 4550 2338 Q 4550 1131 3912 565 Q 3275 0 1925 0 L 628 0 L 628 4666 z" transform="scale(0.015625)"/><path id="DejaVuSans-46" d="M 628 4666 L 3309 4666 L 3309 4134 L 1259 4134 L 1259 2759 L 3109 2759 L 3109 2228 L 1259 2228 L 1259 0 L 628 0 L 628 4666 z" transform="scale(0.015625)"/><path id="DejaVuSans-53" d="M 3425 4513 L 3425 3897 Q 3066 4069 2747 4153 Q 2428 4238 2131 4238 Q 1616 4238 1336 4038 Q 1056 3838 1056 3469 Q 1056 3159 1242 3001 Q 1428 2844 1947 2747 L 2328 2669 Q 3034 2534 3370 2195 Q 3706 1856 3706 1288 Q 3706 609 3251 259 Q 2797 -91 1919 -91 Q 1588 -91 1214 -16 Q 841 59 441 206 L 441 856 Q 825 641 1194 531 Q 1563 422 1919 422 Q 2459 422 2753 634 Q 3047 847 3047 1241 Q 3047 1584 2836 1778 Q 2625 1972 2144 2069 L 1759 2144 Q 1053 2284 737 2584 Q 422 2884 422 3419 Q 422 4038 858 4394 Q 1294 4750 2059 4750 Q 2388 4750 2728 4690 Q 3069 4631 3425 4513 z" transform="scale(0.015625)"/><path id="DejaVuSans-6b" d="M 581 4863 L 1159 4863 L 1159 1991 L 2875 3500 L 3609 3500 L 1753 1863 L 3688 0 L 2938 0 L 1159 1709 L 1159 0 L 581 0 L 581 4863 z" transform="scale(0.015625)"/></defs><use xlink:href="#DejaVuSans-44"/><use x="77.002" xlink:href="#DejaVuSans-46"/><use x="132.771" xlink:href="#DejaVuSans-53"/><use x="196.248" xlink:href="#DejaVuSans-20"/><use x="228.035" xlink:href="#DejaVuSans-62"/><use x="291.512" xlink:href="#DejaVuSans-65"/><use x="353.035" xlink:href="#DejaVuSans-6e"/><use x="416.414" xlink:href="#DejaVuSans-63"/><use x="471.395" xlink:href="#DejaVuSans-68"/><use x="534.773" xlink:href="#DejaVuSans-6d"/><use x="632.186" xlink:href="#DejaVuSans-61"/><use x="693.465" xlink:href="#DejaVuSans-72"/><use x="734.578" xlink:href="#DejaVuSans-6b"/></g></g><g id="legend_1"><g id="patch_7"><path d="M 64.6 108.1845 L 123.757812 108.1845 Q 125.757812 108.1845 125.757812 106.1845 L 125.757812 48.472 Q 125.757812 46.472 123.757812 46.472 L 64.6 46.472 Q 62.6 46.472 62.6 48.472 L 62.6 106.1845 Q 62.6 108.1845 64.6 108.1845 z" style="fill:#fff;opacity:.8;stroke:#ccc;stroke-linejoin:miter"/></g><g id="line2d_18"><path d="M 66.6 54.570438 L 76.6 54.570438 L 86.6 54.570438" style="fill:none;stroke-dasharray:5.55,2.4;stroke-dashoffset:0;stroke:#1f77b4;stroke-width:1.5"/><g><use x="76.6" y="54.57" xlink:href="#m81834d8ab3" style="fill:#1f77b4;stroke:#1f77b4"/></g></g><g id="text_17"><g transform="translate(94.6 58.070438) scale(0.1 -0.1)"><use xlink:href="#DejaVuSans-66"/><use x="35.205" xlink:href="#DejaVuSans-6f"/><use x="96.387" xlink:href="#DejaVuSans-72"/><use x="137.5" xlink:href="#DejaVuSans-6b"/></g></g><g id="line2d_19"><path d="M 66.6 69.248563 L 76.6 69.248563 L 86.6 69.248563" style="fill:none;stroke-dasharray:5.55,2.4;stroke-dashoffset:0;stroke:#ff7f0e;stroke-width:1.5"/><g><use x="76.6" y="69.249" xlink:href="#m65d3243373" style="fill:#ff7f0e;stroke:#ff7f0e"/></g></g><g id="text_18"><g transform="translate(94.6 72.748563) scale(0.1 -0.1)"><use xlink:href="#DejaVuSans-6f"/><use x="61.182" xlink:href="#DejaVuSans-6d"/><use x="158.594" xlink:href="#DejaVuSans-70"/></g></g><g id="line2d_20"><path d="M 66.6 83.926688 L 76.6 83.926688 L 86.6 83.926688" style="fill:none;stroke-dasharray:5.55,2.4;stroke-dashoffset:0;stroke:#2ca02c;stroke-width:1.5"/><g><use x="76.6" y="83.927" xlink:href="#m9d4a162cf2" style="fill:#2ca02c;stroke:#2ca02c"/></g></g><g id="text_19"><g transform="translate(94.6 87.426688) scale(0.1 -0.1)"><defs><path id="DejaVuSans-6c" d="M 603 4863 L 1178 4863 L 1178 0 L 603 0 L 603 4863 z" transform="scale(0.015625)"/></defs><use xlink:href="#DejaVuSans-73"/><use x="52.1" xlink:href="#DejaVuSans-65"/><use x="113.623" xlink:href="#DejaVuSans-72"/><use x="154.736" xlink:href="#DejaVuSans-69"/><use x="182.52" xlink:href="#DejaVuSans-61"/><use x="243.799" xlink:href="#DejaVuSans-6c"/></g></g><g id="line2d_21"><path d="M 66.6 98.604813 L 76.6 98.604813 L 86.6 98.604813" style="fill:none;stroke-dasharray:5.55,2.4;stroke-dashoffset:0;stroke:#d62728;stroke-width:1.5"/><g><use x="76.6" y="98.605" xlink:href="#m4cc32502cc" style="fill:#d62728;stroke:#d62728"/></g></g><g id="text_20"><g transform="translate(94.6 102.104813) scale(0.1 -0.1)"><use xlink:href="#DejaVuSans-74"/><use x="39.209" xlink:href="#DejaVuSans-62"/><use x="102.686" xlink:href="#DejaVuSans-62"/></g></g></g></g></g><defs><clipPath id="p78af3ef007"><rect width="357.12" height="266.112" x="57.6" y="41.472"/></clipPath></defs></svg>